<?xml version="1.0" encoding="utf-8"?>
<!-- Generator: Adobe Illustrator 16.0.0, SVG Export Plug-In . SVG Version: 6.00 Build 0)  -->
<!DOCTYPE svg PUBLIC "-//W3C//DTD SVG 1.1//EN" "http://www.w3.org/Graphics/SVG/1.1/DTD/svg11.dtd">
<svg version="1.1" xmlns="http://www.w3.org/2000/svg" xmlns:xlink="http://www.w3.org/1999/xlink" x="0px" y="0px" width="350px"
	 height="350px" viewBox="0 0 350 350" enable-background="new 0 0 350 350" xml:space="preserve">
<g id="Layer_1">
	<path fill-rule="evenodd" clip-rule="evenodd" fill="#E1222A" d="M351.167,53.523c0,81.667,0,163.333,0,245
		c-1.384,7.317-4.079,14.214-7.997,20.445c-11.4,18.134-27.28,29.922-49.303,30.011c-78.466,0.318-156.932,0.129-235.398,0.106
		c-2.894-0.001-5.778,0.146-8.674-0.596c-26.395-6.771-42.22-23.772-48.629-49.967c0-81.666,0-163.333,0-245
		c6.376-26.448,22.646-43.233,49-50.167c84,0,168,0,252,0C328.53,10.281,344.803,27.063,351.167,53.523z M167.951,277.658
		c15.38,0,27.819-0.173,40.252,0.041c17.608,0.303,33.857-3.384,49.678-11.848c40.089-21.446,62.173-66.494,52.374-110.952
		c-8.335-37.814-31.033-63.822-68.1-75.178c-36.769-11.265-69.848-2.569-98.169,23.487c-2.823,2.597-5.481,3.67-9.321,3.341
		c-8.348-0.716-16.679-0.246-24.905,1.644c-47.666,10.95-72.026,55.868-64.572,99.412c6.117,35.728,42.243,68.971,78.514,70.159
		C139.459,278.281,155.166,276.959,167.951,277.658z"/>
	<path fill-rule="evenodd" clip-rule="evenodd" fill="none" d="M1.167,298.522c6.409,26.194,22.234,43.196,48.629,49.967
		c2.896,0.742,5.78,0.595,8.674,0.596c78.466,0.022,156.932,0.212,235.398-0.106c22.022-0.089,37.902-11.877,49.303-30.011
		c3.918-6.231,6.613-13.128,7.997-20.445c0,15.729-0.106,31.462,0.086,47.188c0.04,3.297-0.433,4.285-4.099,4.26
		c-30.099-0.203-60.2-0.114-90.3-0.114c-83.698,0-167.396-0.04-251.093,0.12c-4.125,0.008-4.771-0.991-4.705-4.849
		C1.323,329.597,1.167,314.059,1.167,298.522z"/>
	<path fill-rule="evenodd" clip-rule="evenodd" fill="none" d="M50.167,3.356c-26.354,6.934-42.624,23.719-49,50.167
		c0-15.75,0.074-31.5-0.075-47.25C1.068,3.765,1.576,3.256,4.084,3.281C19.444,3.431,34.806,3.356,50.167,3.356z"/>
	<path fill-rule="evenodd" clip-rule="evenodd" fill="none" d="M351.167,53.523c-6.364-26.46-22.637-43.242-49-50.167
		c15.361,0,30.723,0.075,46.082-0.075c2.509-0.024,3.017,0.484,2.993,2.993C351.094,22.022,351.167,37.773,351.167,53.523z"/>
	<path display="none" fill-rule="evenodd" clip-rule="evenodd" fill="none" d="M167.951,277.658
		c-12.785-0.699-28.492,0.623-44.249,0.106c-36.271-1.188-72.396-34.432-78.514-70.159c-7.455-43.544,16.906-88.462,64.572-99.412
		c8.226-1.89,16.557-2.36,24.905-1.644c3.84,0.329,6.498-0.745,9.321-3.341c28.321-26.057,61.401-34.752,98.169-23.487
		c37.066,11.356,59.765,37.364,68.1,75.178c9.799,44.458-12.285,89.505-52.374,110.952c-15.82,8.464-32.069,12.15-49.678,11.848
		C195.771,277.485,183.331,277.658,167.951,277.658z M165.432,275.093c14.94,0,27.963-0.025,40.984,0.007
		c15.077,0.036,29.377-2.391,43.535-8.512c46.984-20.318,71.347-73.558,54.912-121.987c-14.82-43.668-56.892-70.78-102.44-65.816
		c-22.259,2.425-41.303,11.807-57.064,27.677c-2.863,2.882-5.652,4.18-9.788,3.451c-7.759-1.367-15.533-0.377-23.163,1.182
		c-42.889,8.766-71.124,49.251-64.623,92.774c5.579,37.347,34.891,63.733,68.338,69.894
		C132.965,276.863,150.263,274.679,165.432,275.093z"/>
	<path fill-rule="evenodd" clip-rule="evenodd" fill="none" d="M213.086,256.507c-22.079,0.021-41.001-7.818-56.719-23.226
		c-12.355-12.11-24.463-24.473-36.688-36.715c-2.081-2.083-4.122-4.132-4.024-7.429c0.152-5.099,5.023-8.098,9.428-5.554
		c1.813,1.048,3.35,2.64,4.855,4.142c11.838,11.806,23.458,23.835,35.489,35.438c19.604,18.907,42.869,25.163,68.745,16.533
		c25.793-8.604,41.521-27.276,45.344-54.241c3.941-27.802-5.854-50.883-29.439-66.495c-23.369-15.469-47.872-15.268-72.134-1.227
		c-5.905,3.417-11.67,3.059-16.557-1.506c-2.726-2.546,0.292-3.329,1.491-4.305c11.431-9.298,24.528-14.996,39.082-16.993
		c41.954-5.759,80.495,21.042,89.792,62.248C303.361,208.646,265.449,256.51,213.086,256.507z"/>
	<path fill-rule="evenodd" clip-rule="evenodd" fill="none" d="M158.637,257.517c-15.174-0.513-29.203,1.436-43.025-1.199
		c-39.045-7.44-61.604-47.635-49.477-85.588c15.314-47.927,76.463-59.995,109.331-24.54c8.181,8.825,16.342,17.67,24.491,26.527
		c2.987,3.248,4.131,6.854,0.537,10.249c-3.575,3.377-7.049,1.973-10.272-1.021c-9.416-8.743-17.154-19.04-26.155-28.158
		c-21.219-21.495-57.224-19.99-75.743,3.889c-12.635,16.291-16.219,34.937-7.575,54.297c8.544,19.137,23.655,29.794,44.912,31.063
		c1.745,0.105,3.536,0.609,5.221,0.36C142.828,241.631,150.436,248.605,158.637,257.517z"/>
</g>
<g id="Layer_2">
	<path fill-rule="evenodd" clip-rule="evenodd" fill="#E1222A" d="M165.432,275.093c-15.169-0.414-32.466,1.771-49.309-1.331
		c-33.447-6.16-62.759-32.547-68.338-69.894c-6.5-43.523,21.734-84.008,64.623-92.774c7.63-1.559,15.404-2.549,23.163-1.182
		c4.135,0.729,6.925-0.569,9.788-3.451c15.761-15.87,34.805-25.251,57.064-27.677c45.549-4.963,87.62,22.148,102.44,65.816
		c16.435,48.43-7.928,101.669-54.912,121.987c-14.158,6.121-28.458,8.548-43.535,8.512
		C193.395,275.067,180.372,275.093,165.432,275.093z M213.086,256.507c52.363,0.003,90.275-47.86,78.665-99.33
		c-9.297-41.206-47.838-68.007-89.792-62.248c-14.554,1.997-27.65,7.695-39.082,16.993c-1.2,0.976-4.217,1.758-1.491,4.305
		c4.887,4.565,10.652,4.924,16.557,1.506c24.262-14.041,48.765-14.242,72.134,1.227c23.585,15.612,33.381,38.692,29.439,66.495
		c-3.823,26.965-19.551,45.637-45.344,54.241c-25.876,8.63-49.142,2.374-68.745-16.533c-12.031-11.603-23.651-23.632-35.489-35.438
		c-1.505-1.502-3.042-3.094-4.855-4.142c-4.405-2.544-9.276,0.455-9.428,5.554c-0.098,3.297,1.943,5.346,4.024,7.429
		c12.225,12.242,24.333,24.604,36.688,36.715C172.085,248.688,191.007,256.528,213.086,256.507z M158.637,257.517
		c-8.202-8.911-15.81-15.886-27.757-14.121c-1.686,0.249-3.476-0.255-5.221-0.36c-21.257-1.269-36.368-11.926-44.912-31.063
		c-8.644-19.36-5.06-38.006,7.575-54.297c18.52-23.879,54.524-25.384,75.743-3.889c9.001,9.118,16.739,19.416,26.155,28.158
		c3.224,2.993,6.697,4.397,10.272,1.021c3.594-3.395,2.45-7.001-0.537-10.249c-8.148-8.856-16.31-17.702-24.491-26.527
		c-32.867-35.455-94.016-23.387-109.331,24.54c-12.127,37.953,10.432,78.147,49.477,85.588
		C129.435,258.952,143.463,257.004,158.637,257.517z"/>
</g>
</svg>
