<?xml version="1.0" encoding="utf-8"?>
<!-- Generator: Adobe Illustrator 16.0.0, SVG Export Plug-In . SVG Version: 6.00 Build 0)  -->
<!DOCTYPE svg PUBLIC "-//W3C//DTD SVG 1.1//EN" "http://www.w3.org/Graphics/SVG/1.1/DTD/svg11.dtd">
<svg version="1.1" id="Layer_1" xmlns="http://www.w3.org/2000/svg" xmlns:xlink="http://www.w3.org/1999/xlink" x="0px" y="0px"
	 width="291.142px" height="297.692px" viewBox="0 0 291.142 297.692" enable-background="new 0 0 291.142 297.692"
	 xml:space="preserve">
<g>
	<path display="none" fill-rule="evenodd" clip-rule="evenodd" fill="#FBFDFE" d="M177.978,1c36.828,0,73.658,0.045,110.486-0.084
		c2.982-0.011,3.584,0.602,3.581,3.583c-0.1,96.321-0.1,192.643,0,288.963c0.003,2.981-0.6,3.585-3.581,3.582
		c-94.655-0.1-189.31-0.1-283.964,0c-2.981,0.003-3.585-0.6-3.582-3.582c0.099-96.32,0.099-192.642,0-288.963
		C0.916,1.519,1.516,0.905,4.5,0.916C41.661,1.044,78.823,1,115.985,1c0.038,0.377,0.075,0.755,0.112,1.132
		c-6.128,1.746-12.508,1.111-18.728,1.544c-17.22,1.198-34.314,3.112-51.252,6.33c-11.409,2.168-22.729,4.787-33.116,10.314
		c-5.253,2.795-8.52,6.178-8.221,13.125c0.643,14.963,0.181,29.972,0.208,44.961c0.025,14.172,1.896,16.771,15.384,21.606
		c0.312,0.112,0.652,0.143,0.968,0.248c28.125,9.317,57.403,12.097,86.642,13.394c26.551,1.177,53.212,1.119,79.844-0.419
		c20.231-1.168,40.272-3.317,60.136-7.214c10.926-2.144,21.708-4.781,31.615-10.136c4.825-2.608,7.772-5.875,7.588-12.107
		c-0.444-14.976-0.133-29.975-0.149-44.964c-0.016-15.057-1.528-17.224-15.644-22.557c-0.464-0.176-0.966-0.251-1.439-0.405
		c-23.029-7.486-46.905-9.922-70.861-11.891c-7.074-0.582-14.146-1.209-21.218-1.816C177.895,1.763,177.937,1.381,177.978,1z
		 M287.014,120.413c-5.716,1.92-10.958,3.974-16.356,5.448c-33.668,9.19-68.239,11.671-102.877,12.899
		c-16.932,0.6-33.916,0.319-50.904-0.439c-20.747-0.926-41.403-2.317-61.928-5.392c-15.405-2.309-30.815-4.827-45.32-10.827
		c-4.01-1.659-4.812-0.808-4.77,3.228c0.18,17.328,0.19,34.659,0.122,51.988c-0.01,2.598,0.879,4.422,2.725,6.075
		c5.756,5.16,12.88,7.516,20.059,9.557c27.772,7.893,56.385,10.518,85.009,11.669c23.747,0.954,47.575,0.899,71.387-0.437
		c21.072-1.182,41.939-3.616,62.674-7.29c11.439-2.026,22.778-4.703,33.118-10.335c3.195-1.74,6.91-3.754,6.959-7.808
		C287.14,159.439,287.014,140.125,287.014,120.413z M5.104,211.286c0,19.021-0.111,37.605,0.109,56.187
		c0.037,3.142,2.066,5.616,5.082,7.481c7.334,4.537,15.462,6.853,23.618,9.005c22.847,6.033,46.366,8.728,69.761,9.547
		c46.303,1.623,92.735,2.46,138.613-6.486c12.86-2.508,25.796-4.85,37.457-11.279c3.616-1.995,7.311-4.188,7.301-9.203
		c-0.033-17.321-0.111-34.644-0.016-51.965c0.017-2.977-1.002-3.381-3.467-2.494c-12.97,4.666-26.207,8.115-39.875,10.267
		c-20.812,3.277-41.701,6.049-62.725,6.38c-31.917,0.5-63.869,1.457-95.752-1.644c-13.025-1.267-25.988-2.83-38.918-4.845
		C32.333,220.062,18.822,216.3,5.104,211.286z"/>
	<path display="none" fill-rule="evenodd" clip-rule="evenodd" fill="#C0DDF4" d="M177.978,1c-0.041,0.381-0.083,0.763-0.123,1.144
		c-20.585-0.004-41.171-0.008-61.757-0.012c-0.037-0.377-0.075-0.754-0.112-1.132C136.649,1,157.313,1,177.978,1z"/>
	<path fill-rule="evenodd" clip-rule="evenodd" fill="#6FAEDF" d="M116.098,2.132c20.586,0.004,41.172,0.007,61.757,0.012
		c7.071,0.607,14.143,1.235,21.217,1.817c23.956,1.969,47.832,4.404,70.861,11.891c0.474,0.154,0.976,0.229,1.439,0.405
		c14.115,5.333,15.628,7.5,15.644,22.557c0.017,14.99-0.295,29.988,0.149,44.964c0.185,6.232-2.763,9.499-7.588,12.107
		c-9.907,5.354-20.689,7.992-31.615,10.136c-19.863,3.897-39.904,6.046-60.136,7.214c-26.631,1.538-53.293,1.596-79.844,0.419
		c-29.239-1.297-58.517-4.077-86.642-13.394c-0.315-0.104-0.656-0.136-0.968-0.248C6.885,95.176,5.014,92.578,4.989,78.405
		C4.961,63.416,5.423,48.407,4.78,33.444c-0.299-6.946,2.968-10.329,8.221-13.125c10.387-5.527,21.707-8.146,33.116-10.314
		c16.938-3.218,34.032-5.132,51.252-6.33C103.589,3.243,109.969,3.877,116.098,2.132z"/>
	<path fill-rule="evenodd" clip-rule="evenodd" fill="#6FAEDF" d="M287.014,120.413c0,19.712,0.126,39.026-0.103,58.336
		c-0.049,4.054-3.764,6.067-6.959,7.808c-10.34,5.632-21.679,8.309-33.118,10.335c-20.734,3.674-41.602,6.108-62.674,7.29
		c-23.812,1.336-47.64,1.391-71.387,0.437c-28.624-1.151-57.237-3.776-85.009-11.669c-7.179-2.041-14.303-4.396-20.059-9.557
		c-1.845-1.653-2.734-3.478-2.725-6.075c0.068-17.329,0.058-34.66-0.122-51.988c-0.042-4.036,0.76-4.887,4.77-3.228
		c14.505,6,29.915,8.519,45.32,10.827c20.525,3.075,41.181,4.466,61.928,5.392c16.988,0.758,33.972,1.039,50.904,0.439
		c34.638-1.228,69.209-3.708,102.877-12.899C276.056,124.387,281.298,122.333,287.014,120.413z"/>
	<path fill-rule="evenodd" clip-rule="evenodd" fill="#6FAEDF" d="M5.104,211.286c13.718,5.014,27.229,8.775,41.188,10.95
		c12.93,2.015,25.893,3.578,38.918,4.845c31.883,3.101,63.835,2.144,95.752,1.644c21.023-0.331,41.913-3.103,62.725-6.38
		c13.668-2.151,26.905-5.601,39.875-10.267c2.465-0.887,3.483-0.482,3.467,2.494c-0.096,17.321-0.018,34.644,0.016,51.965
		c0.01,5.015-3.685,7.208-7.301,9.203c-11.661,6.43-24.597,8.771-37.457,11.279c-45.878,8.946-92.31,8.109-138.613,6.486
		c-23.396-0.819-46.914-3.514-69.761-9.547c-8.156-2.152-16.284-4.468-23.618-9.005c-3.015-1.865-5.044-4.34-5.082-7.481
		C4.993,248.892,5.104,230.307,5.104,211.286z"/>
</g>
</svg>
