<?xml version="1.0" encoding="utf-8"?>
<!-- Generator: Adobe Illustrator 16.0.0, SVG Export Plug-In . SVG Version: 6.00 Build 0)  -->
<!DOCTYPE svg PUBLIC "-//W3C//DTD SVG 1.1//EN" "http://www.w3.org/Graphics/SVG/1.1/DTD/svg11.dtd">
<svg version="1.1" id="Layer_1" xmlns="http://www.w3.org/2000/svg" xmlns:xlink="http://www.w3.org/1999/xlink" x="0px" y="0px"
	 width="299.963px" height="214.973px" viewBox="0 0 299.963 214.973" enable-background="new 0 0 299.963 214.973"
	 xml:space="preserve">
<g>
	<path display="none" fill-rule="evenodd" clip-rule="evenodd" fill="#FCFCFE" d="M169.979,1c42.827,0,85.656,0.039,128.483-0.083
		c2.983-0.009,3.587,0.601,3.582,3.583c-0.105,70.824-0.082,141.648-0.082,212.473c-98.987,0-197.975-0.022-296.962,0.096
		c-3.423,0.004-4.122-0.668-4.1-4.097C1.078,184.978,1,156.98,1,128.983c1.426,0.619,0.973,1.97,1.12,3.038
		c1.371,9.916,3.527,19.635,6.889,29.084c9.901,27.827,28.809,45.153,58.148,51.002c22.48,4.481,44.99,5.133,67.582,1.814
		c46.233-6.79,82.314-29.084,105.85-70.192c4.466-7.801,8.534-15.818,11.688-24.23c1.512-4.029,3.394-5.624,8.135-5.828
		c17.338-0.748,30.925-8.079,38.946-24.277c1.932-3.9,0.933-5.999-2.464-7.961c-9.871-5.707-20.604-6.269-31.496-5.02
		c-3.333,0.383-4.554-0.093-5.349-3.454c-2.905-12.286-10.386-21.276-20.77-28.222c-3.416-2.284-5.016-1.467-6.904,1.7
		c-9.33,15.642-12.774,31.734-3.988,48.777c1.121,2.174,0.506,2.949-1.358,3.661c-4.216,1.61-8.572,2.6-13.026,3.343
		c-2.919,0.487-3.818-0.346-3.753-3.285c0.164-7.327,0.103-14.661,0.041-21.991c-0.051-6.127-2.011-8.102-8.063-8.146
		c-7.497-0.055-15.011-0.303-22.487,0.092c-4.83,0.255-6.557-0.768-6.427-6.135c0.416-17.151,0.072-34.319,0.216-51.479
		C173.564,7.3,172.967,3.805,169.979,1z"/>
	<path fill-rule="evenodd" clip-rule="evenodd" fill="#2D57A2" d="M169.979,1c2.989,2.805,3.586,6.3,3.552,10.277
		c-0.144,17.16,0.199,34.327-0.216,51.479c-0.13,5.367,1.597,6.39,6.427,6.135c7.477-0.395,14.99-0.146,22.487-0.092
		c6.052,0.044,8.012,2.018,8.063,8.146c0.062,7.33,0.123,14.664-0.041,21.991c-0.065,2.938,0.834,3.771,3.753,3.285
		c4.454-0.743,8.811-1.732,13.026-3.343c1.864-0.712,2.479-1.486,1.358-3.661c-8.786-17.043-5.342-33.136,3.988-48.777
		c1.889-3.167,3.488-3.984,6.904-1.7c10.384,6.946,17.864,15.936,20.77,28.222c0.795,3.361,2.016,3.836,5.349,3.454
		c10.892-1.249,21.625-0.688,31.496,5.02c3.396,1.962,4.396,4.061,2.464,7.961c-8.021,16.199-21.608,23.53-38.946,24.277
		c-4.741,0.204-6.623,1.798-8.135,5.828c-3.154,8.412-7.223,16.429-11.688,24.23c-23.536,41.108-59.617,63.402-105.85,70.192
		c-22.591,3.318-45.102,2.667-67.582-1.814c-29.339-5.849-48.247-23.175-58.148-51.002c-3.362-9.449-5.519-19.169-6.889-29.084
		c-0.147-1.067,0.306-2.418-1.12-3.038c0-5.999,0-11.998,0-17.998c3.504-6.371,8.852-9.126,16.068-8.123
		c3.066,0.426,4.011-0.752,3.908-3.864c-0.235-7.144-0.092-14.3-0.07-21.452c0.02-6.939,1.852-8.736,8.938-8.757
		c7.484-0.023,14.975-0.193,22.449,0.075c3.76,0.135,5.305-0.685,5.064-4.848c-0.383-6.63-0.119-13.299-0.1-19.952
		c0.021-7.224,1.947-9.163,9.149-9.168c19.792-0.014,39.583-0.12,59.373,0.091c3.992,0.042,5.563-0.73,5.302-5.063
		c-0.39-6.463,0.091-12.974-0.174-19.45c-0.162-3.969,0.836-7.125,4.075-9.478C146.648,1,158.313,1,169.979,1z M119.149,210.104
		c6.176-0.035,12.241-1.122,18.295-2.127c29.138-4.835,55.099-16.333,76.221-37.405c15.822-15.785,26.494-34.966,34.579-55.563
		c2.106-5.367,4.557-7.291,10.375-6.995c14.168,0.72,25.585-4.9,33.571-16.844c2.886-4.315,2.472-5.313-2.433-7.156
		c-9.496-3.57-19.218-3.418-28.96-1.45c-3.249,0.656-4.53,0.449-5.054-3.458c-1.521-11.363-6.986-20.672-16.324-27.553
		c-1.381-1.018-2.545-2.255-3.897,0.185c-7.156,12.91-10.297,28.976-0.922,43.059c2.811,4.221,1.379,5.598-2.044,7.379
		c-8.161,4.249-16.87,5.894-25.998,5.891c-62.963-0.021-125.926-0.01-188.89-0.009c-1.499,0-3.009-0.105-4.495,0.038
		c-4.01,0.385-6.47,2.251-6.403,6.685c0.095,6.322,0.228,12.618,1.133,18.906c2.327,16.169,7.141,31.408,16.027,45.249
		c2.138,3.329,4.695,4.96,8.912,5.154c14.791,0.683,28.807-1.609,41.906-8.836c4.8-2.648,6.13-1.655,5.986,3.836
		c-1.877-0.418-3.079,0.984-4.515,1.71c-8.37,4.239-17.163,7.096-26.491,8.256c-5.168,0.643-10.355,0.985-16.249,0.452
		c1.511,2.058,2.416,3.35,3.392,4.585c0.293,0.37,0.763,0.621,1.188,0.862c16.199,9.205,33.567,14.242,52.216,15.115
		C99.913,210.521,109.522,211.117,119.149,210.104z M42.265,74.117c-3.487,0-6.983,0.156-10.459-0.042
		c-3.851-0.219-5.58,1.58-5.609,5.228c-0.049,6.144-0.035,12.289-0.004,18.433c0.018,3.501,1.914,5.103,5.339,5.098
		c7.141-0.01,14.281-0.028,21.422,0.014c3.27,0.02,4.948-1.431,4.933-4.78c-0.028-6.31-0.063-12.621,0.014-18.931
		c0.043-3.602-1.646-5.131-5.174-5.039C49.241,74.19,45.752,74.119,42.265,74.117z M78.33,102.833c3.653,0,7.306-0.017,10.959,0.005
		c3.212,0.019,4.895-1.252,4.813-4.761c-0.149-6.472-0.127-12.952-0.009-19.425c0.06-3.256-1.536-4.516-4.524-4.521
		c-7.306-0.013-14.612,0.006-21.918-0.012c-3.378-0.008-4.726,1.74-4.691,4.999c0.066,6.309,0.053,12.62,0.007,18.929
		c-0.024,3.362,1.635,4.833,4.902,4.798C71.355,102.807,74.843,102.835,78.33,102.833z M78.402,68.892c0-0.005,0-0.01,0-0.015
		c3.831,0,7.663,0.048,11.492-0.016c2.78-0.046,4.236-1.358,4.191-4.351c-0.097-6.494-0.074-12.991-0.01-19.487
		c0.034-3.373-1.584-4.867-4.867-4.857c-7.162,0.022-14.324,0.018-21.486,0.004c-3.344-0.006-4.8,1.661-4.765,4.965
		c0.067,6.329,0.053,12.659,0.011,18.987c-0.022,3.382,1.665,4.826,4.939,4.781C71.406,68.855,74.904,68.892,78.402,68.892z
		 M115.226,68.891c3.664,0,7.328-0.021,10.991,0.006c3.182,0.023,4.973-1.13,4.887-4.7c-0.152-6.324-0.116-12.656-0.015-18.982
		c0.059-3.657-1.691-5.093-5.183-5.062c-6.827,0.059-13.657,0.119-20.481-0.021c-4.173-0.085-5.58,1.869-5.461,5.816
		c0.17,5.657,0.233,11.331-0.016,16.982c-0.207,4.684,1.881,6.293,6.288,6.001C109.22,68.735,112.229,68.895,115.226,68.891z
		 M115.538,74.119c-3.486,0-6.974,0.064-10.458-0.018c-3.557-0.084-5.152,1.521-5.098,5.102c0.094,6.141,0.118,12.287-0.007,18.427
		c-0.08,3.917,1.797,5.336,5.493,5.234c4.146-0.114,8.3-0.012,12.45-0.029c15.6-0.063,12.997,1.361,13.116-13.309
		C131.158,74.116,131.061,74.115,115.538,74.119z M152.02,68.892c3.657,0,7.315-0.04,10.972,0.012
		c3.274,0.046,4.952-1.403,4.931-4.771c-0.039-6.482-0.015-12.966-0.014-19.449c0-3.122-1.652-4.513-4.675-4.51
		c-7.314,0.008-14.628-0.009-21.943,0.013c-3.007,0.009-4.54,1.344-4.478,4.58c0.126,6.647,0.083,13.298,0.024,19.947
		c-0.026,2.936,1.271,4.259,4.211,4.196C144.705,68.831,148.363,68.891,152.02,68.892z M188.949,74.12
		c-3.656,0-7.314,0.059-10.969-0.018c-2.967-0.063-4.201,1.319-4.174,4.23c0.062,6.648,0.108,13.298-0.021,19.944
		c-0.063,3.268,1.534,4.531,4.513,4.541c7.313,0.024,14.627,0.008,21.939,0.016c3.047,0.003,4.633-1.447,4.63-4.549
		c-0.006-6.482-0.025-12.965,0.011-19.447c0.02-3.385-1.695-4.784-4.96-4.73C196.264,74.167,192.606,74.12,188.949,74.12z
		 M152.564,74.124c-3.652,0-7.305,0.019-10.957-0.005c-3.217-0.021-4.884,1.25-4.799,4.761c0.157,6.471,0.139,12.951,0.008,19.422
		c-0.067,3.28,1.556,4.507,4.521,4.516c7.305,0.022,14.61,0.003,21.915,0.018c3.037,0.006,4.655-1.412,4.657-4.515
		c0.003-6.475-0.023-12.949,0.016-19.424c0.021-3.346-1.615-4.837-4.9-4.789C159.537,74.159,156.05,74.12,152.564,74.124z
		 M152.465,6.864c-3.666,0-7.334,0.091-10.997-0.028c-3.052-0.1-4.702,0.908-4.646,4.259c0.11,6.497,0.083,12.998,0.009,19.495
		c-0.032,2.852,1.007,4.387,4.05,4.365c7.498-0.054,14.997-0.027,22.495-0.02c3.121,0.003,4.545-1.59,4.538-4.65
		c-0.017-6.498-0.024-12.997,0.006-19.496c0.013-2.704-1.25-3.968-3.958-3.936C160.13,6.899,156.297,6.865,152.465,6.864z"/>
	<path fill-rule="evenodd" clip-rule="evenodd" fill="#FCFCFE" d="M134.983,1c-3.239,2.353-4.237,5.508-4.075,9.478
		c0.265,6.476-0.216,12.987,0.174,19.45c0.261,4.333-1.31,5.104-5.302,5.063c-19.789-0.211-39.581-0.105-59.373-0.091
		c-7.203,0.005-9.128,1.944-9.149,9.168c-0.02,6.652-0.284,13.321,0.1,19.952c0.241,4.163-1.304,4.982-5.064,4.848
		c-7.475-0.269-14.965-0.098-22.449-0.075c-7.087,0.021-8.918,1.818-8.938,8.757c-0.021,7.151-0.165,14.308,0.07,21.452
		c0.103,3.112-0.842,4.291-3.908,3.864C9.852,101.86,4.504,104.615,1,110.986C1,75.49,1.046,39.995,0.916,4.5
		C0.905,1.517,1.517,0.908,4.5,0.917C47.994,1.038,91.488,1,134.983,1z"/>
	<path fill-rule="evenodd" clip-rule="evenodd" fill="#458FCD" d="M80.735,179.089c0.144-5.492-1.186-6.485-5.986-3.836
		c-13.099,7.227-27.115,9.519-41.906,8.836c-4.217-0.194-6.774-1.825-8.912-5.154c-8.887-13.841-13.701-29.08-16.027-45.249
		c-0.905-6.288-1.039-12.584-1.133-18.906c-0.067-4.433,2.393-6.3,6.403-6.685c1.485-0.143,2.996-0.038,4.495-0.038
		c62.963-0.001,125.927-0.011,188.89,0.009c9.128,0.003,17.837-1.642,25.998-5.891c3.423-1.781,4.854-3.158,2.044-7.379
		c-9.375-14.083-6.234-30.149,0.922-43.059c1.353-2.44,2.517-1.203,3.897-0.185c9.338,6.881,14.803,16.19,16.324,27.553
		c0.523,3.907,1.805,4.114,5.054,3.458c9.742-1.968,19.464-2.12,28.96,1.45c4.904,1.844,5.318,2.841,2.433,7.156
		c-7.986,11.944-19.403,17.564-33.571,16.844c-5.818-0.296-8.269,1.627-10.375,6.995c-8.085,20.597-18.757,39.778-34.579,55.563
		c-21.122,21.072-47.083,32.57-76.221,37.405c-6.054,1.005-12.12,2.092-18.295,2.126c-4.269-2.094-8.683-3.938-12.777-6.33
		C95.861,197.631,86.628,190.069,80.735,179.089z M107.058,157.658c-0.107-5.436-4.53-9.744-9.922-9.665
		c-5.29,0.077-9.838,4.636-9.858,9.881c-0.02,5.169,4.662,9.921,9.818,9.965C102.669,167.887,107.169,163.289,107.058,157.658z"/>
	<path fill-rule="evenodd" clip-rule="evenodd" fill="#FCFCFE" d="M80.735,179.089c5.893,10.98,15.126,18.542,25.637,24.684
		c4.094,2.393,8.508,4.236,12.777,6.33c-9.626,1.015-19.236,0.418-28.872-0.033c-18.649-0.873-36.018-5.91-52.216-15.115
		c-0.425-0.241-0.895-0.492-1.188-0.862c-0.976-1.235-1.881-2.527-3.392-4.585c5.893,0.533,11.081,0.19,16.249-0.452
		c9.329-1.16,18.121-4.017,26.491-8.256C77.657,180.073,78.858,178.671,80.735,179.089z"/>
	<path fill-rule="evenodd" clip-rule="evenodd" fill="#458FCD" d="M42.265,74.118c3.487,0.001,6.977,0.073,10.461-0.019
		c3.528-0.093,5.217,1.437,5.174,5.039c-0.076,6.31-0.042,12.621-0.014,18.931c0.015,3.349-1.664,4.799-4.933,4.78
		c-7.141-0.042-14.281-0.024-21.422-0.014c-3.426,0.005-5.322-1.597-5.339-5.098c-0.03-6.145-0.044-12.289,0.004-18.433
		c0.029-3.648,1.758-5.447,5.609-5.228C35.281,74.273,38.778,74.117,42.265,74.118z M49.067,88.489c0,1.981-0.014,3.963,0.006,5.944
		c0.01,1.005,0.07,2.157,1.34,2.27c1.326,0.117,1.542-1.004,1.549-2.024c0.028-4.128,0.028-8.256,0-12.384
		c-0.007-1.021-0.224-2.141-1.551-2.021c-1.269,0.114-1.33,1.266-1.339,2.271C49.053,84.525,49.067,86.507,49.067,88.489z
		 M35.001,89.365c0-2.214,0.053-4.032-0.018-5.846c-0.048-1.227,0.481-3.085-1.347-3.199c-1.948-0.122-1.496,1.766-1.547,2.983
		c-0.076,1.813-0.277,3.678,0.039,5.437c0.479,2.667-1.688,7.396,1.562,7.522C36.439,96.37,34.186,91.493,35.001,89.365z
		 M42.884,80.51c-0.458,0.008-0.916,0.017-1.373,0.024c0,5.321,0,10.642,0,15.963c0.458-0.011,0.916-0.021,1.374-0.032
		C43.362,91.147,43.361,85.829,42.884,80.51z"/>
	<path fill-rule="evenodd" clip-rule="evenodd" fill="#458FCD" d="M78.33,102.834c-3.487,0.001-6.975-0.027-10.461,0.01
		c-3.267,0.035-4.926-1.436-4.902-4.798c0.046-6.309,0.059-12.62-0.007-18.929c-0.035-3.258,1.313-5.007,4.691-4.999
		c7.306,0.018,14.612-0.001,21.918,0.012c2.988,0.005,4.583,1.265,4.524,4.521c-0.118,6.474-0.141,12.953,0.009,19.425
		c0.082,3.509-1.601,4.78-4.813,4.761C85.636,102.816,81.982,102.833,78.33,102.834z M77.104,88.334c0.011,0,0.023,0,0.034,0
		c0,2.309-0.039,4.618,0.02,6.925c0.023,0.918,0.572,1.55,1.577,1.427c0.733-0.09,1.15-0.65,1.157-1.372
		c0.037-4.453,0.058-8.907,0.047-13.36c-0.002-0.883-0.417-1.692-1.389-1.709c-0.97-0.017-1.416,0.761-1.432,1.656
		C77.076,84.045,77.104,86.19,77.104,88.334z M69.303,96.802c2.49-3.036,2.592-13.065,0-16.917
		C69.303,85.834,69.303,91.155,69.303,96.802z M86.217,96.47c0.42-0.019,0.84-0.039,1.26-0.058c0-5.314,0-10.629,0-15.944
		c-0.496,0.018-0.991,0.036-1.486,0.054C85.937,85.84,85.531,91.16,86.217,96.47z"/>
	<path fill-rule="evenodd" clip-rule="evenodd" fill="#458FCD" d="M78.402,68.892c-3.498,0-6.997-0.037-10.494,0.011
		c-3.274,0.044-4.961-1.399-4.939-4.781c0.042-6.329,0.056-12.658-0.011-18.987c-0.035-3.305,1.42-4.972,4.765-4.965
		c7.162,0.014,14.325,0.018,21.486-0.004c3.283-0.01,4.901,1.485,4.867,4.857c-0.064,6.496-0.087,12.993,0.01,19.487
		c0.045,2.993-1.411,4.305-4.191,4.351c-3.83,0.064-7.662,0.016-11.492,0.016C78.402,68.882,78.402,68.887,78.402,68.892z
		 M79.976,54.684c0-1.99,0.021-3.98-0.008-5.97c-0.014-0.973,0.069-2.232-1.281-2.25c-1.189-0.016-1.565,1.085-1.575,2.13
		c-0.041,3.979-0.04,7.958-0.032,11.938c0.002,1.019,0.128,2.186,1.391,2.242c1.297,0.058,1.47-1.099,1.486-2.121
		C79.986,58.664,79.964,56.673,79.976,54.684z M86.267,62.52c0.381-0.005,0.763-0.01,1.144-0.015c0-5.328,0-10.657,0-15.984
		c-0.381,0.011-0.763,0.022-1.144,0.033C86.267,51.875,86.267,57.197,86.267,62.52z M70.763,46.536
		c-0.567,0.017-1.134,0.033-1.701,0.05c-0.194,5.339-0.525,10.685,0.209,15.99c0.498-0.016,0.995-0.031,1.492-0.046
		C70.763,57.198,70.763,51.867,70.763,46.536z"/>
	<path fill-rule="evenodd" clip-rule="evenodd" fill="#458FCD" d="M115.226,68.893c-2.997,0.002-6.005-0.158-8.99,0.04
		c-4.406,0.292-6.494-1.318-6.288-6.001c0.249-5.651,0.186-11.325,0.016-16.982c-0.119-3.947,1.288-5.901,5.461-5.816
		c6.824,0.14,13.654,0.08,20.481,0.021c3.492-0.031,5.241,1.405,5.183,5.062c-0.101,6.327-0.137,12.658,0.015,18.982
		c0.086,3.57-1.705,4.724-4.887,4.7C122.553,68.87,118.889,68.891,115.226,68.893z M116.958,54.644c0.012,0,0.023,0,0.035,0
		c0-2.157,0.02-4.314-0.009-6.471c-0.012-0.871-0.294-1.771-1.313-1.737c-0.906,0.029-1.484,0.83-1.498,1.703
		c-0.065,4.312-0.066,8.625-0.052,12.937c0.003,0.896,0.447,1.708,1.403,1.726c0.97,0.018,1.405-0.79,1.421-1.688
		C116.984,58.957,116.958,56.8,116.958,54.644z M124.858,46.568c-0.442,0.011-0.884,0.022-1.326,0.034c0,5.319,0,10.638,0,15.957
		c0.452-0.017,0.903-0.034,1.354-0.051C125.319,57.192,125.38,51.877,124.858,46.568z M106.222,62.527
		c0.433-0.006,0.865-0.012,1.298-0.018c0-5.323,0-10.645,0-15.967c-0.46,0.015-0.919,0.03-1.379,0.045
		C105.74,51.902,105.619,57.217,106.222,62.527z"/>
	<path fill-rule="evenodd" clip-rule="evenodd" fill="#458FCD" d="M115.538,74.118c15.523-0.002,15.62-0.001,15.495,15.408
		c-0.119,14.67,2.484,13.246-13.116,13.309c-4.15,0.017-8.303-0.085-12.45,0.029c-3.695,0.102-5.573-1.318-5.493-5.234
		c0.125-6.14,0.101-12.286,0.007-18.427c-0.055-3.58,1.541-5.186,5.098-5.102C108.564,74.183,112.052,74.119,115.538,74.118z
		 M114.067,87.807c0,2.389-0.029,4.371,0.011,6.351c0.023,1.127-0.086,2.631,1.552,2.522c1.563-0.104,1.343-1.609,1.363-2.727
		c0.035-1.98,0.259-4.001-0.049-5.933c-0.414-2.591,1.395-7.462-1.247-7.312C112.212,80.907,114.979,85.636,114.067,87.807z
		 M105.897,88.263c0,2.163-0.023,4.327,0.012,6.489c0.014,0.833,0.138,1.778,1.223,1.813c0.99,0.032,1.521-0.809,1.532-1.631
		c0.063-4.318,0.058-8.638-0.02-12.955c-0.015-0.824-0.563-1.639-1.57-1.566c-1.102,0.079-1.149,1.048-1.167,1.86
		C105.864,84.269,105.894,86.267,105.897,88.263z M123.213,96.466c0.423-0.016,0.847-0.033,1.271-0.049c0-5.314,0-10.629,0-15.944
		c-0.455,0.02-0.91,0.039-1.365,0.058C122.754,85.847,122.594,91.161,123.213,96.466z"/>
	<path fill-rule="evenodd" clip-rule="evenodd" fill="#458FCD" d="M152.02,68.891c-3.657,0-7.315-0.06-10.971,0.018
		c-2.941,0.063-4.237-1.26-4.211-4.196c0.059-6.649,0.102-13.3-0.024-19.947c-0.062-3.235,1.47-4.571,4.478-4.58
		c7.314-0.022,14.629-0.005,21.943-0.013c3.023-0.003,4.675,1.388,4.675,4.51c0,6.483-0.025,12.967,0.014,19.449
		c0.021,3.368-1.657,4.817-4.931,4.771C159.335,68.852,155.677,68.892,152.02,68.891z M145.015,54.079c0.008,0,0.016,0,0.023,0
		c0-1.824,0.019-3.647-0.007-5.47c-0.015-0.997-0.038-2.189-1.387-2.163c-0.876,0.017-1.426,0.917-1.438,1.777
		c-0.059,4.307-0.057,8.616-0.03,12.923c0.006,0.896,0.474,1.662,1.463,1.631c1.004-0.031,1.348-0.869,1.363-1.738
		C145.042,58.72,145.015,56.398,145.015,54.079z M150.666,54.625c1.286,2.474-1.216,7.769,1.475,7.634
		c3.601-0.182,1.436-5.137,1.569-7.935c0.123-2.579,1.374-7.544-1.237-7.408C149.161,47.088,151.783,51.821,150.666,54.625z
		 M158.932,54.868c0.916,2.613-1.181,7.548,1.426,7.431c3.395-0.153,1.462-4.854,1.519-7.471c0.06-2.746,1.281-8.099-0.955-7.876
		C157.113,47.33,160.092,52.183,158.932,54.868z"/>
	<path fill-rule="evenodd" clip-rule="evenodd" fill="#458FCD" d="M188.949,74.12c3.657,0,7.314,0.046,10.97-0.014
		c3.265-0.054,4.979,1.345,4.96,4.73c-0.036,6.482-0.017,12.965-0.011,19.447c0.003,3.103-1.583,4.553-4.63,4.549
		c-7.313-0.008-14.626,0.008-21.939-0.016c-2.979-0.01-4.577-1.272-4.513-4.541c0.129-6.646,0.082-13.296,0.021-19.944
		c-0.027-2.912,1.208-4.293,4.174-4.23C181.635,74.179,185.293,74.12,188.949,74.12z M181.989,88.725
		c0-2.432,0.025-4.414-0.011-6.395c-0.019-1.02-0.217-2.152-1.52-2.067c-1.256,0.082-1.369,1.225-1.381,2.243
		c-0.021,1.981-0.245,3.996,0.038,5.936c0.403,2.763-1.271,7.997,1.226,7.788C183.952,95.926,180.967,90.997,181.989,88.725z
		 M196.065,87.61c0,2.577-0.012,4.724,0.005,6.871c0.008,1.02,0.131,2.164,1.388,2.233c1.296,0.072,1.494-1.062,1.513-2.083
		c0.038-2.146,0.304-4.341-0.042-6.429c-0.44-2.658,1.745-7.353-1.587-7.488C194.658,80.605,196.846,85.501,196.065,87.61z
		 M190.679,88.512c0.043,0,0.085,0,0.128,0c0-1.989,0.014-3.979-0.006-5.968c-0.01-1.017-0.104-2.167-1.365-2.272
		c-1.328-0.111-1.531,1.027-1.538,2.047c-0.028,4.144-0.027,8.289-0.003,12.433c0.005,0.826,0.119,1.769,1.207,1.815
		c0.992,0.042,1.507-0.771,1.544-1.602C190.743,92.818,190.679,90.664,190.679,88.512z"/>
	<path fill-rule="evenodd" clip-rule="evenodd" fill="#458FCD" d="M152.564,74.122c3.486-0.002,6.973,0.037,10.459-0.014
		c3.286-0.048,4.921,1.443,4.9,4.789c-0.039,6.475-0.013,12.95-0.016,19.424c-0.001,3.103-1.62,4.521-4.657,4.515
		c-7.305-0.015-14.61,0.004-21.915-0.018c-2.965-0.009-4.588-1.235-4.521-4.516c0.131-6.472,0.149-12.951-0.008-19.422
		c-0.085-3.511,1.582-4.782,4.799-4.761C145.259,74.143,148.912,74.124,152.564,74.122z M145.042,88.682
		c0-2.23,0.03-4.046-0.011-5.861c-0.025-1.125,0.104-2.633-1.535-2.532c-1.552,0.096-1.366,1.592-1.385,2.719
		c-0.032,1.815-0.231,3.666,0.041,5.439c0.424,2.759-1.259,7.993,1.24,7.779C146.985,95.92,144.005,90.992,145.042,88.682z
		 M153.814,88.091c-0.017,0-0.034,0-0.051,0c0-2.143,0.022-4.287-0.013-6.43c-0.012-0.72-0.441-1.275-1.164-1.376
		c-1.015-0.142-1.565,0.507-1.576,1.419c-0.055,4.453-0.061,8.906-0.043,13.36c0.004,0.891,0.459,1.683,1.429,1.663
		c0.956-0.02,1.391-0.815,1.405-1.707C153.839,92.711,153.814,90.401,153.814,88.091z M159.099,88.488
		c0,1.981-0.013,3.962,0.005,5.943c0.009,1.011,0.09,2.156,1.35,2.266c1.322,0.115,1.54-1.007,1.547-2.027
		c0.028-4.127,0.028-8.254,0-12.381c-0.007-1.021-0.232-2.14-1.555-2.018c-1.261,0.117-1.331,1.266-1.341,2.273
		C159.086,84.526,159.1,86.507,159.099,88.488z"/>
	<path fill-rule="evenodd" clip-rule="evenodd" fill="#458FCD" d="M152.465,6.865c3.833,0,7.666,0.035,11.498-0.011
		c2.708-0.032,3.971,1.232,3.958,3.936c-0.031,6.499-0.023,12.998-0.006,19.496c0.008,3.06-1.417,4.653-4.538,4.65
		c-7.499-0.008-14.997-0.035-22.495,0.02c-3.043,0.021-4.082-1.514-4.05-4.365c0.074-6.498,0.101-12.999-0.009-19.495
		c-0.057-3.351,1.593-4.358,4.646-4.259C145.13,6.955,148.799,6.864,152.465,6.865z M153.798,21.452
		c0-2.688,0.056-4.843-0.024-6.992c-0.039-1.029-0.479-2.018-1.756-1.892c-1.101,0.108-1.063,1.124-1.08,1.917
		c-0.047,2.152-0.263,4.339,0.035,6.45c0.371,2.621-1.266,7.55,1.13,7.404C155.731,28.119,152.936,23.468,153.798,21.452z
		 M142.124,19.811c0,2.615-0.028,4.77,0.013,6.923c0.019,1.017,0.206,2.149,1.536,2.068c1.315-0.079,1.33-1.26,1.346-2.248
		c0.036-2.153,0.318-4.36-0.049-6.449c-0.447-2.543,1.702-7.206-1.365-7.179C140.565,12.953,142.899,17.728,142.124,19.811z
		 M161.976,20.709c0.013,0,0.025,0,0.039,0c0-2.154,0.017-4.309-0.009-6.462c-0.01-0.872-0.277-1.76-1.307-1.734
		c-0.921,0.022-1.487,0.823-1.5,1.684c-0.066,4.306-0.062,8.613-0.048,12.919c0.003,0.897,0.442,1.699,1.398,1.727
		c0.982,0.029,1.4-0.775,1.416-1.672C162,25.016,161.976,22.862,161.976,20.709z"/>
	<path fill-rule="evenodd" clip-rule="evenodd" fill="#FCFCFE" d="M107.058,157.658c0.111,5.63-4.389,10.229-9.962,10.182
		c-5.156-0.044-9.838-4.796-9.818-9.965c0.02-5.245,4.568-9.804,9.858-9.881C102.528,147.915,106.951,152.223,107.058,157.658z
		 M91.75,158.091c0.183,2.702,1.552,4.461,4.334,5.209c3.469,0.934,5.127-1.312,6.368-3.761c1.914-3.773-2.096-1.96-3.119-3.012
		c-0.711-0.731-1.353-1.39-1.287-2.523c0.136-2.354-1.33-1.753-2.604-1.314C92.941,153.552,91.806,155.397,91.75,158.091z"/>
	<path fill-rule="evenodd" clip-rule="evenodd" fill="#2D57A2" d="M49.067,88.489c0-1.982-0.014-3.963,0.006-5.945
		c0.01-1.005,0.07-2.157,1.339-2.271c1.327-0.119,1.544,1.001,1.551,2.021c0.028,4.127,0.027,8.256,0,12.384
		c-0.007,1.02-0.223,2.141-1.549,2.024c-1.27-0.112-1.331-1.264-1.34-2.27C49.053,92.452,49.067,90.47,49.067,88.489z"/>
	<path fill-rule="evenodd" clip-rule="evenodd" fill="#2D57A2" d="M35.001,89.365c-0.816,2.127,1.438,7.004-1.311,6.898
		c-3.25-0.125-1.083-4.855-1.562-7.522c-0.316-1.759-0.115-3.624-0.039-5.437c0.051-1.218-0.401-3.105,1.547-2.983
		c1.828,0.114,1.298,1.972,1.347,3.199C35.054,85.333,35.001,87.151,35.001,89.365z"/>
	<path fill-rule="evenodd" clip-rule="evenodd" fill="#2D57A2" d="M42.884,80.51c0.478,5.319,0.478,10.637,0.001,15.955
		c-0.458,0.011-0.916,0.021-1.374,0.032c0-5.321,0-10.642,0-15.963C41.968,80.526,42.426,80.518,42.884,80.51z"/>
	<path fill-rule="evenodd" clip-rule="evenodd" fill="#2D57A2" d="M77.104,88.334c0-2.144-0.027-4.29,0.013-6.433
		c0.017-0.896,0.462-1.673,1.432-1.656c0.972,0.018,1.386,0.826,1.389,1.709c0.011,4.453-0.01,8.907-0.047,13.36
		c-0.006,0.722-0.423,1.282-1.157,1.372c-1.004,0.124-1.553-0.509-1.577-1.427c-0.059-2.307-0.02-4.617-0.02-6.925
		C77.126,88.334,77.115,88.334,77.104,88.334z"/>
	<path fill-rule="evenodd" clip-rule="evenodd" fill="#2D57A2" d="M69.303,96.802c0-5.647,0-10.968,0-16.917
		C71.895,83.737,71.792,93.767,69.303,96.802z"/>
	<path fill-rule="evenodd" clip-rule="evenodd" fill="#2D57A2" d="M86.217,96.47c-0.686-5.31-0.28-10.63-0.226-15.947
		c0.495-0.018,0.99-0.036,1.486-0.054c0,5.315,0,10.629,0,15.944C87.057,96.431,86.637,96.451,86.217,96.47z"/>
	<path fill-rule="evenodd" clip-rule="evenodd" fill="#2D57A2" d="M79.97,54.684c-0.006,1.989,0.016,3.98-0.015,5.969
		c-0.016,1.022-0.188,2.179-1.486,2.121c-1.262-0.056-1.389-1.223-1.391-2.242c-0.008-3.979-0.008-7.958,0.032-11.938
		c0.01-1.045,0.386-2.146,1.575-2.13c1.35,0.018,1.267,1.277,1.281,2.25C79.996,50.704,79.976,52.694,79.97,54.684z"/>
	<path fill-rule="evenodd" clip-rule="evenodd" fill="#2D57A2" d="M86.267,62.52c0-5.323,0-10.645,0-15.967
		c0.381-0.011,0.763-0.022,1.144-0.033c0,5.328,0,10.656,0,15.984C87.029,62.51,86.647,62.515,86.267,62.52z"/>
	<path fill-rule="evenodd" clip-rule="evenodd" fill="#2D57A2" d="M70.763,46.536c0,5.331,0,10.663,0,15.994
		c-0.497,0.016-0.994,0.031-1.492,0.046c-0.734-5.306-0.403-10.651-0.209-15.99C69.629,46.569,70.196,46.552,70.763,46.536z"/>
	<path fill-rule="evenodd" clip-rule="evenodd" fill="#2D57A2" d="M116.958,54.644c0,2.156,0.026,4.313-0.013,6.469
		c-0.016,0.898-0.451,1.706-1.421,1.688c-0.957-0.018-1.4-0.83-1.403-1.726c-0.014-4.312-0.013-8.625,0.052-12.937
		c0.013-0.873,0.592-1.674,1.498-1.703c1.019-0.033,1.301,0.866,1.313,1.737c0.029,2.157,0.009,4.314,0.009,6.471
		C116.981,54.644,116.969,54.644,116.958,54.644z"/>
	<path fill-rule="evenodd" clip-rule="evenodd" fill="#2D57A2" d="M124.858,46.568c0.522,5.309,0.46,10.624,0.028,15.94
		c-0.451,0.017-0.903,0.034-1.354,0.051c0-5.319,0-10.638,0-15.957C123.974,46.591,124.417,46.58,124.858,46.568z"/>
	<path fill-rule="evenodd" clip-rule="evenodd" fill="#2D57A2" d="M106.222,62.527c-0.603-5.311-0.481-10.625-0.082-15.94
		c0.46-0.015,0.919-0.03,1.379-0.045c0,5.322,0,10.645,0,15.967C107.087,62.515,106.654,62.521,106.222,62.527z"/>
	<path fill-rule="evenodd" clip-rule="evenodd" fill="#2D57A2" d="M114.067,87.807c0.912-2.171-1.855-6.9,1.63-7.099
		c2.641-0.15,0.833,4.721,1.247,7.312c0.308,1.932,0.084,3.952,0.049,5.933c-0.02,1.118,0.2,2.623-1.363,2.727
		c-1.638,0.108-1.529-1.395-1.552-2.522C114.038,92.178,114.067,90.196,114.067,87.807z"/>
	<path fill-rule="evenodd" clip-rule="evenodd" fill="#2D57A2" d="M105.895,88.263c-0.001-1.996-0.031-3.994,0.013-5.99
		c0.018-0.812,0.064-1.781,1.167-1.86c1.006-0.073,1.555,0.743,1.57,1.566c0.078,4.317,0.083,8.637,0.02,12.955
		c-0.012,0.822-0.542,1.663-1.532,1.631c-1.085-0.035-1.209-0.98-1.223-1.813C105.874,92.59,105.897,90.426,105.895,88.263z"/>
	<path fill-rule="evenodd" clip-rule="evenodd" fill="#2D57A2" d="M123.213,96.466c-0.619-5.305-0.459-10.619-0.095-15.936
		c0.455-0.019,0.91-0.038,1.365-0.058c0,5.315,0,10.629,0,15.944C124.06,96.434,123.636,96.45,123.213,96.466z"/>
	<path fill-rule="evenodd" clip-rule="evenodd" fill="#2D57A2" d="M145.015,54.079c0,2.32,0.027,4.641-0.014,6.96
		c-0.015,0.869-0.359,1.707-1.363,1.738c-0.99,0.03-1.458-0.736-1.463-1.631c-0.026-4.308-0.028-8.616,0.03-12.923
		c0.012-0.86,0.562-1.76,1.438-1.777c1.349-0.026,1.373,1.166,1.387,2.163c0.026,1.823,0.007,3.646,0.007,5.47
		C145.03,54.079,145.022,54.079,145.015,54.079z"/>
	<path fill-rule="evenodd" clip-rule="evenodd" fill="#2D57A2" d="M150.666,54.625c1.117-2.804-1.504-7.537,1.807-7.709
		c2.611-0.136,1.359,4.829,1.237,7.408c-0.133,2.798,2.032,7.753-1.569,7.935C149.449,62.394,151.952,57.099,150.666,54.625z"/>
	<path fill-rule="evenodd" clip-rule="evenodd" fill="#2D57A2" d="M158.932,54.868c1.161-2.685-1.819-7.538,1.99-7.917
		c2.235-0.223,1.015,5.131,0.955,7.876c-0.057,2.618,1.876,7.318-1.519,7.471C157.751,62.416,159.848,57.48,158.932,54.868z"/>
	<path fill-rule="evenodd" clip-rule="evenodd" fill="#2D57A2" d="M181.989,88.725c-1.022,2.271,1.963,7.201-1.647,7.504
		c-2.497,0.209-0.822-5.025-1.226-7.788c-0.283-1.94-0.059-3.955-0.038-5.936c0.012-1.018,0.125-2.161,1.381-2.243
		c1.303-0.084,1.501,1.047,1.52,2.067C182.015,84.311,181.989,86.293,181.989,88.725z"/>
	<path fill-rule="evenodd" clip-rule="evenodd" fill="#2D57A2" d="M196.065,87.61c0.78-2.108-1.407-7.005,1.276-6.896
		c3.332,0.135,1.146,4.83,1.587,7.488c0.346,2.088,0.08,4.282,0.042,6.429c-0.019,1.021-0.217,2.155-1.513,2.083
		c-1.257-0.069-1.38-1.213-1.388-2.233C196.054,92.334,196.065,90.187,196.065,87.61z"/>
	<path fill-rule="evenodd" clip-rule="evenodd" fill="#2D57A2" d="M190.679,88.512c0,2.151,0.064,4.306-0.033,6.453
		c-0.037,0.831-0.552,1.645-1.544,1.602c-1.088-0.047-1.202-0.99-1.207-1.815c-0.024-4.144-0.025-8.289,0.003-12.433
		c0.007-1.021,0.21-2.158,1.538-2.047c1.261,0.105,1.355,1.256,1.365,2.272c0.02,1.989,0.006,3.979,0.006,5.968
		C190.764,88.512,190.722,88.512,190.679,88.512z"/>
	<path fill-rule="evenodd" clip-rule="evenodd" fill="#2D57A2" d="M145.042,88.682c-1.036,2.31,1.943,7.238-1.65,7.544
		c-2.499,0.213-0.816-5.02-1.24-7.779c-0.272-1.774-0.073-3.624-0.041-5.439c0.019-1.127-0.167-2.624,1.385-2.719
		c1.639-0.101,1.509,1.408,1.535,2.532C145.072,84.636,145.042,86.452,145.042,88.682z"/>
	<path fill-rule="evenodd" clip-rule="evenodd" fill="#2D57A2" d="M153.814,88.091c0,2.31,0.025,4.62-0.013,6.929
		c-0.015,0.891-0.449,1.687-1.405,1.707c-0.97,0.021-1.425-0.772-1.429-1.663c-0.018-4.454-0.012-8.907,0.043-13.36
		c0.011-0.912,0.561-1.561,1.576-1.419c0.723,0.101,1.152,0.656,1.164,1.376c0.035,2.143,0.013,4.287,0.013,6.43
		C153.78,88.091,153.797,88.091,153.814,88.091z"/>
	<path fill-rule="evenodd" clip-rule="evenodd" fill="#2D57A2" d="M159.1,88.488c0-1.981-0.013-3.962,0.006-5.943
		c0.01-1.007,0.08-2.156,1.341-2.273c1.323-0.123,1.548,0.997,1.555,2.018c0.028,4.126,0.028,8.254,0,12.381
		c-0.007,1.02-0.225,2.142-1.547,2.027c-1.26-0.11-1.341-1.255-1.35-2.266C159.086,92.451,159.099,90.469,159.1,88.488z"/>
	<path fill-rule="evenodd" clip-rule="evenodd" fill="#2D57A2" d="M153.798,21.452c-0.862,2.017,1.934,6.667-1.695,6.888
		c-2.396,0.146-0.759-4.784-1.13-7.404c-0.298-2.111-0.082-4.298-0.035-6.45c0.017-0.794-0.021-1.81,1.08-1.917
		c1.278-0.126,1.717,0.862,1.756,1.892C153.854,16.609,153.798,18.763,153.798,21.452z"/>
	<path fill-rule="evenodd" clip-rule="evenodd" fill="#2D57A2" d="M142.124,19.811c0.775-2.083-1.559-6.857,1.48-6.885
		c3.066-0.027,0.917,4.636,1.365,7.179c0.367,2.089,0.085,4.296,0.049,6.449c-0.016,0.988-0.03,2.169-1.346,2.248
		c-1.331,0.081-1.517-1.051-1.536-2.068C142.096,24.581,142.124,22.426,142.124,19.811z"/>
	<path fill-rule="evenodd" clip-rule="evenodd" fill="#2D57A2" d="M161.976,20.709c0,2.153,0.024,4.307-0.012,6.46
		c-0.015,0.897-0.434,1.702-1.416,1.672c-0.956-0.028-1.395-0.83-1.398-1.727c-0.014-4.306-0.019-8.613,0.048-12.919
		c0.013-0.861,0.579-1.661,1.5-1.684c1.03-0.025,1.297,0.862,1.307,1.734c0.026,2.154,0.009,4.308,0.009,6.462
		C162.001,20.709,161.988,20.709,161.976,20.709z"/>
	<path fill-rule="evenodd" clip-rule="evenodd" fill="#2D57A2" d="M91.75,158.091c0.056-2.693,1.191-4.539,3.692-5.401
		c1.275-0.439,2.741-1.04,2.604,1.314c-0.065,1.133,0.576,1.792,1.287,2.523c1.023,1.052,5.032-0.761,3.119,3.012
		c-1.241,2.449-2.899,4.694-6.368,3.761C93.301,162.552,91.933,160.793,91.75,158.091z"/>
</g>
</svg>
