<?xml version="1.0" encoding="utf-8"?>
<!-- Generator: Adobe Illustrator 16.0.0, SVG Export Plug-In . SVG Version: 6.00 Build 0)  -->
<!DOCTYPE svg PUBLIC "-//W3C//DTD SVG 1.1//EN" "http://www.w3.org/Graphics/SVG/1.1/DTD/svg11.dtd">
<svg version="1.1" xmlns="http://www.w3.org/2000/svg" xmlns:xlink="http://www.w3.org/1999/xlink" x="0px" y="0px" width="500px"
	 height="401px" viewBox="0 0 500 401" enable-background="new 0 0 500 401" xml:space="preserve">
<g id="Layer_2" display="none">
	<path display="inline" fill="#21B24B" d="M552,415c0,6.627-5.373,12-12,12H-27c-6.627,0-12-5.373-12-12v-536
		c0-6.627,5.373-12,12-12h567c6.627,0,12,5.373,12,12V415z"/>
</g>
<g id="Layer_1">
	<g>
		<path display="none" fill-rule="evenodd" clip-rule="evenodd" fill="#4A0303" d="M1.667,394.637
			c0-128.528,0.078-257.055-0.21-385.582C1.44,1.953,3.324,1.131,9.74,1.14c161.284,0.208,322.568,0.208,483.854,0
			c6.416-0.008,8.299,0.813,8.283,7.915c-0.288,128.527-0.21,257.054-0.21,385.582C335,394.637,168.333,394.637,1.667,394.637z
			 M250.608,8.333c-34.145-2.85-68.002,3.263-101.12,14.787c-40.02,13.923-75.36,34.927-102.911,67.656
			c-31.84,37.824-43.87,82.148-37.279,130.332c6.999,51.169,35.235,90.487,77.545,119.102
			c53.664,36.294,113.661,50.596,178.051,47.8c31.226-1.355,61.559-7.067,90.982-17.741c38.474-13.958,72.134-34.899,99.011-66.245
			c45.967-53.611,51.863-134.02,14.275-193.765c-21.058-33.468-50.555-57.202-85.605-74.129
			C341.995,16.058,298.242,4.99,250.608,8.333z"/>
		<path fill-rule="evenodd" clip-rule="evenodd" fill="#FBFAFA" d="M1.667,394.637c166.667,0,333.333,0,500,0
			c-1.85,3.486-5.061,1.562-7.5,1.563c-155,0.116-310,0.104-465,0.104c-8.333,0-16.667,0.029-25-0.037
			C3.153,396.258,1.097,397.297,1.667,394.637z"/>
		<path fill-rule="evenodd" clip-rule="evenodd" fill="#FBFAFA" d="M250.608,8.333c47.634-3.343,91.387,7.725,132.949,27.796
			c35.051,16.927,64.548,40.661,85.605,74.129c37.588,59.745,31.691,140.153-14.275,193.765
			c-26.877,31.346-60.537,52.287-99.011,66.245c-29.424,10.674-59.757,16.386-90.982,17.741
			c-64.39,2.796-124.388-11.506-178.051-47.8c-42.311-28.614-70.547-67.933-77.545-119.102
			c-6.59-48.184,5.439-92.508,37.279-130.332c27.551-32.729,62.892-53.733,102.911-67.656
			C182.606,11.597,216.463,5.483,250.608,8.333z M246.823,347.361c50.563-0.672,95.045-10.457,135.369-35.232
			c27.777-17.065,50.115-39.324,61.918-70.481c1.309-3.457,5.903-8.098,1.875-11.2c-3.914-3.012-9.002,0.162-13.106,2.519
			c-1.892,1.085-3.563,2.585-5.243,4.004c-5.825,4.92-9.78,11.375-13.635,17.747c-5.715,9.445-14.31,13.237-24.67,14.881
			c-9.652,1.532-19.36,2.191-29.006,1.406c-13.93-1.133-26.614,2.354-37.946,9.801c-17.518,11.51-34.979,12.317-53.321,2.461
			c-11.236-6.039-22.752-6.227-34.402-0.768c-4.259,1.996-8.777,3.443-13.197,5.088c-16.969,6.314-33.669,5.797-50.06-2.051
			c-10.769-5.156-20.853-11.49-30.695-18.194c-11.225-7.646-22.935-11.613-36.832-8.235c-13.525,3.285-24.458-2.577-33.404-12.34
			c-4.481-4.889-8.383-10.315-12.437-15.584c-1.173-1.525-2.542-2.402-4.144-1.359c-1.576,1.025-0.16,2.344,0.264,3.576
			c8.391,24.383,22.163,45.093,41.988,61.684C140.832,332.484,193.634,345.838,246.823,347.361z M255.619,107.503
			c-33.716,0.013-59.59,9.469-74.789,25.553c-12.965,13.719-13.816,31.401-1.97,45.886c5.307,6.489,11.706,11.777,19.259,15.591
			c24.119,12.178,49.542,15.305,75.876,10.195c17.356-3.367,33.552-9.553,46.205-22.807c14.558-15.248,14.711-34.596-0.13-49.554
			C300.959,113.104,276.447,108.548,255.619,107.503z M280.739,260.842c0.552-0.027,1.192,0.119,1.646-0.109
			c12.161-6.089,23.114-13.989,33.008-23.225c2.368-2.208,2.313-6.16-0.277-9.163c-2.207-2.559-5.112-6.021-8.228-4.05
			c-11.187,7.076-22.788,13.767-31.969,23.505c-2.128,2.257-2.756,6.053-1.08,9.438
			C275.264,260.119,277.771,260.916,280.739,260.842z M380.592,204.959c4.931-1.583,9.106-3.021,10.024-8.92
			c0.872-5.607-2.332-7.428-6.531-8.789c-9.464-3.073-18.892-6.278-28.451-9.027c-5.212-1.499-9.729,0.847-11.469,5.708
			c-1.842,5.148,1.833,8.192,6.389,9.904c3.876,1.458,7.837,2.686,11.718,4.131C368.47,200.273,374.633,202.68,380.592,204.959z
			 M174.688,202.429c-5.228,0.095-9.376,1.104-10.698,5.187c-1.266,3.908,0.765,7.58,4.425,9.733
			c9.278,5.459,18.687,10.698,27.95,16.184c4.785,2.832,8.351,1.472,11.402-2.617c3.497-4.683,0.763-7.86-2.917-10.312
			c-8.511-5.667-17.17-11.116-25.85-16.527C177.426,203.096,175.475,202.72,174.688,202.429z M385.869,107.596
			c-4.257,1.016-9.293,3.441-7.637,8.989c3.451,11.564,7.917,22.873,12.741,33.95c1.382,3.173,5.267,6.295,9.649,3.619
			c2.701-1.65,5.691-3.793,4.231-7.941c-4.013-11.401-8.028-22.803-12.063-34.196C391.765,109.115,389.775,107.48,385.869,107.596z
			 M239.444,67.839c0.84,0,3.926,0.4,6.854-0.109c3.081-0.537,6.152-2.483,6.392-5.719c0.242-3.275-2.54-5.76-5.593-6.401
			c-10.269-2.157-20.574-4.32-30.975-5.609c-5.816-0.721-9.085,3.143-9.674,9.038c-0.641,6.419,3.915,7.292,8.467,7.64
			C222.35,67.248,229.815,67.409,239.444,67.839z M303.985,82.312c8.581-2.38,19.103-4.847,29.268-8.348
			c3.814-1.313,7.109-5.506,5.3-10.024c-1.745-4.355-6.179-4.741-10.55-3.622c-8.294,2.124-16.577,4.297-24.919,6.211
			c-2.907,0.667-5.052,2.183-6.842,4.336c-1.8,2.165-3.531,4.54-1.574,7.44C296.408,80.886,298.535,83.07,303.985,82.312z
			 M100.71,175.965c-4.105,0.383-7.429,0.57-8.799,3.861c-1.75,4.207,1.278,7.176,4.083,9.067c8.809,5.942,19.197,8.249,29.2,11.248
			c3.54,1.062,6.294-1.575,7.724-4.935c1.542-3.627,0.443-6.889-2.883-8.535C120.38,181.893,110.089,178.787,100.71,175.965z
			 M85.317,129.968c2.459-0.013,5.063,0.521,6.585-1.229c6.5-7.469,13.064-14.918,18.987-22.838c2.63-3.516-0.54-6.851-3.019-9.404
			c-2.374-2.445-5.075-1.743-7.257,0.55c-7.026,7.385-14.06,14.764-20.924,22.297c-1.915,2.101-2.842,4.93-1.304,7.671
			C79.911,129.73,82.65,130.264,85.317,129.968z M177.818,97.333c-0.235-0.553-0.386-1.095-0.671-1.554
			c-5.811-9.357-11.433-18.841-17.583-27.969c-1.853-2.751-5.621-2.524-8.368-0.863c-2.682,1.625-5.097,4.782-3.417,7.671
			c5.657,9.722,11.186,19.639,19.292,27.64c1.868,1.844,4.697,1.714,6.945,0.14C175.785,101.159,177.651,99.808,177.818,97.333z"/>
		<path display="none" fill-rule="evenodd" clip-rule="evenodd" fill="#4B0505" d="M246.823,347.361
			c-53.188-1.523-105.991-14.877-150.685-52.279c-19.826-16.591-33.597-37.301-41.988-61.684c-0.424-1.232-1.84-2.551-0.264-3.576
			c1.602-1.043,2.971-0.166,4.144,1.359c4.054,5.269,7.956,10.695,12.437,15.584c8.947,9.763,19.879,15.625,33.404,12.34
			c13.896-3.378,25.607,0.59,36.832,8.235c9.842,6.704,19.926,13.038,30.695,18.194c16.391,7.848,33.091,8.365,50.06,2.051
			c4.42-1.645,8.938-3.092,13.197-5.088c11.65-5.459,23.166-5.271,34.402,0.768c18.342,9.856,35.804,9.049,53.321-2.461
			c11.332-7.447,24.017-10.934,37.946-9.801c9.646,0.785,19.354,0.126,29.006-1.406c10.36-1.644,18.955-5.436,24.67-14.881
			c3.854-6.372,7.81-12.827,13.635-17.747c1.68-1.419,3.352-2.919,5.243-4.004c4.104-2.356,9.192-5.53,13.106-2.519
			c4.028,3.103-0.566,7.743-1.875,11.2c-11.803,31.157-34.141,53.416-61.918,70.481
			C341.868,336.904,297.386,346.689,246.823,347.361z"/>
		<path display="none" fill-rule="evenodd" clip-rule="evenodd" fill="#4A0303" d="M255.619,107.503
			c20.828,1.045,45.34,5.601,64.451,24.865c14.841,14.958,14.688,34.306,0.13,49.554c-12.653,13.254-28.849,19.439-46.205,22.807
			c-26.335,5.109-51.758,1.982-75.876-10.195c-7.553-3.813-13.952-9.102-19.259-15.591c-11.846-14.484-10.995-32.167,1.97-45.886
			C196.029,116.973,221.903,107.517,255.619,107.503z"/>
		<path display="none" fill-rule="evenodd" clip-rule="evenodd" fill="#4B0505" d="M280.734,260.844
			c-2.964,0.072-5.471-0.725-6.896-3.605c-1.676-3.386-1.048-7.182,1.08-9.438c9.181-9.738,20.782-16.429,31.969-23.505
			c3.115-1.971,6.021,1.491,8.228,4.05c2.59,3.003,2.646,6.955,0.277,9.163c-9.894,9.235-20.847,17.136-33.008,23.225
			C281.932,260.961,281.291,260.814,280.734,260.844z"/>
		<path display="none" fill-rule="evenodd" clip-rule="evenodd" fill="#4B0505" d="M380.592,204.959
			c-5.959-2.279-12.122-4.686-18.32-6.993c-3.881-1.445-7.842-2.673-11.718-4.131c-4.556-1.712-8.23-4.756-6.389-9.904
			c1.739-4.861,6.257-7.207,11.469-5.708c9.56,2.749,18.987,5.954,28.451,9.027c4.199,1.361,7.403,3.182,6.531,8.789
			C389.698,201.938,385.522,203.376,380.592,204.959z"/>
		<path display="none" fill-rule="evenodd" clip-rule="evenodd" fill="#4B0505" d="M174.688,202.429
			c0.788,0.291,2.738,0.667,4.312,1.647c8.679,5.411,17.339,10.86,25.85,16.527c3.68,2.451,6.415,5.629,2.917,10.312
			c-3.052,4.089-6.618,5.449-11.402,2.617c-9.263-5.485-18.672-10.725-27.95-16.184c-3.66-2.153-5.691-5.825-4.425-9.733
			C165.312,203.533,169.459,202.523,174.688,202.429z"/>
		<path display="none" fill-rule="evenodd" clip-rule="evenodd" fill="#4B0505" d="M385.869,107.596
			c3.906-0.116,5.896,1.519,6.923,4.42c4.034,11.394,8.05,22.795,12.063,34.196c1.46,4.148-1.53,6.291-4.231,7.941
			c-4.383,2.677-8.268-0.445-9.649-3.619c-4.824-11.078-9.29-22.386-12.741-33.95C376.576,111.037,381.612,108.612,385.869,107.596z
			"/>
		<path display="none" fill-rule="evenodd" clip-rule="evenodd" fill="#4B0505" d="M239.444,67.839
			c-9.629-0.43-17.095-0.591-24.53-1.161c-4.552-0.348-9.107-1.221-8.467-7.64c0.588-5.895,3.857-9.759,9.674-9.038
			c10.4,1.289,20.706,3.452,30.975,5.609c3.053,0.641,5.835,3.126,5.593,6.401c-0.239,3.236-3.311,5.182-6.392,5.719
			C243.371,68.239,240.285,67.839,239.444,67.839z"/>
		<path display="none" fill-rule="evenodd" clip-rule="evenodd" fill="#4B0505" d="M303.985,82.312
			c-5.45,0.758-7.577-1.426-9.317-4.007c-1.957-2.9-0.226-5.275,1.574-7.44c1.79-2.153,3.935-3.668,6.842-4.336
			c8.342-1.914,16.625-4.087,24.919-6.211c4.371-1.12,8.805-0.734,10.55,3.622c1.81,4.518-1.485,8.711-5.3,10.024
			C323.088,77.464,312.566,79.932,303.985,82.312z"/>
		<path display="none" fill-rule="evenodd" clip-rule="evenodd" fill="#4B0505" d="M100.71,175.965
			c9.378,2.822,19.669,5.928,29.325,10.707c3.326,1.646,4.425,4.908,2.883,8.535c-1.43,3.359-4.184,5.996-7.724,4.935
			c-10.003-2.999-20.391-5.306-29.2-11.248c-2.805-1.892-5.833-4.86-4.083-9.067C93.281,176.535,96.605,176.348,100.71,175.965z"/>
		<path display="none" fill-rule="evenodd" clip-rule="evenodd" fill="#4B0505" d="M85.317,129.968
			c-2.667,0.296-5.407-0.238-6.931-2.954c-1.538-2.741-0.611-5.57,1.304-7.671c6.864-7.533,13.897-14.912,20.924-22.297
			c2.183-2.293,4.883-2.995,7.257-0.55c2.479,2.554,5.649,5.889,3.019,9.404c-5.923,7.92-12.487,15.369-18.987,22.838
			C90.38,130.488,87.777,129.955,85.317,129.968z"/>
		<path display="none" fill-rule="evenodd" clip-rule="evenodd" fill="#4B0505" d="M177.818,97.333
			c-0.167,2.476-2.034,3.827-3.801,5.065c-2.249,1.574-5.078,1.704-6.945-0.14c-8.106-8.001-13.635-17.918-19.292-27.64
			c-1.68-2.889,0.734-6.046,3.417-7.671c2.747-1.662,6.515-1.888,8.368,0.863c6.15,9.127,11.773,18.611,17.583,27.969
			C177.433,96.237,177.583,96.779,177.818,97.333z"/>
	</g>
</g>
</svg>
