<?xml version="1.0" encoding="utf-8"?>
<!-- Generator: Adobe Illustrator 16.0.0, SVG Export Plug-In . SVG Version: 6.00 Build 0)  -->
<!DOCTYPE svg PUBLIC "-//W3C//DTD SVG 1.1//EN" "http://www.w3.org/Graphics/SVG/1.1/DTD/svg11.dtd">
<svg version="1.1" xmlns="http://www.w3.org/2000/svg" xmlns:xlink="http://www.w3.org/1999/xlink" x="0px" y="0px" width="280.5px"
	 height="169.5px" viewBox="122.5 170.5 280.5 169.5" enable-background="new 122.5 170.5 280.5 169.5" xml:space="preserve">
<g id="Layer_4_copy" display="none">
	<path display="inline" fill="#FBFAFA" d="M312.061,320.466c0,6.552,5.754,11.863,12.852,11.863l0,0
		c7.098,0,12.852-5.312,12.852-11.863V191.458c0-6.551-5.754-11.863-12.852-11.863l0,0c-7.098,0-12.852,5.312-12.852,11.863V320.466
		z"/>
	<path display="inline" fill="#FBFAFA" d="M280.427,304.393c0,4.918,5.754,8.906,12.852,8.906l0,0
		c7.098,0,12.851-3.988,12.851-8.906v-96.861c0-4.919-5.753-8.906-12.851-8.906l0,0c-7.098,0-12.852,3.987-12.852,8.906V304.393z"/>
	<path display="inline" fill="#FBFAFA" d="M251.264,294.584c0,3.784,5.754,6.853,12.852,6.853l0,0
		c7.098,0,12.852-3.068,12.852-6.853v-74.525c0-3.785-5.754-6.853-12.852-6.853l0,0c-7.098,0-12.852,3.067-12.852,6.853V294.584z"/>
	<path display="inline" fill="#7EC56D" d="M523,396c0,6.627-5.373,12-12,12H-52.5c-6.627,0-12-5.373-12-12V3c0-6.627,5.373-12,12-12
		H511c6.627,0,12,5.373,12,12V396z"/>
</g>
<g id="Layer_5" display="none">
</g>
<g id="Layer_2_1_" display="none">
</g>
<g id="Layer_3" display="none">
	<g display="inline">
		<g>
			<path fill-rule="evenodd" clip-rule="evenodd" fill="#480000" d="M501.271,402.272c-164.758,0-329.516-0.023-494.274,0.12
				c-4.771,0.004-5.855-1.074-5.847-5.846c0.164-93.088,0.161-186.174,0-279.262c-0.007-4.356,0.855-5.213,5.211-5.209
				c164.97,0.143,329.94,0.121,494.91,0.121c1.135,1.981,0.6,4.149,0.601,6.225c0.03,92.542,0.03,185.084,0,277.627
				C501.871,398.122,502.406,400.291,501.271,402.272z"/>
			<path fill-rule="evenodd" clip-rule="evenodd" fill="#FEFEFE" d="M501.271,402.272c0-96.692,0-193.385,0-290.076
				c2.509-0.194,1.207,1.746,1.208,2.544c0.068,94.996,0.068,189.991,0,284.987C502.479,400.526,503.78,402.466,501.271,402.272z"/>
			<path fill-rule="evenodd" clip-rule="evenodd" fill="#FDFDFD" d="M238.576,265.637c-20.743,0-41.487,0.138-62.228-0.065
				c-8.705-0.086-8.702-0.415-8.566-8.926c0.183-11.509,0.183-11.525,11.995-11.315c39.572,0.707,79.144,1.423,118.715,2.141
				c8.826,0.16,8.744,0.173,8.615,8.725c-0.179,11.782,1.862,11.056-11.375,10.947c-19.051-0.155-38.103-0.04-57.154-0.04
				C238.578,266.614,238.577,266.125,238.576,265.637z"/>
			<path fill-rule="evenodd" clip-rule="evenodd" fill="#FDFDFD" d="M129.353,254.726c0,14.816,0.117,29.634-0.043,44.448
				c-0.101,9.301-4.668,14.144-12.61,13.989c-7.603-0.148-12.286-5.764-12.141-14.661c0.481-29.631,1.01-59.261,1.465-88.892
				c0.093-6.041,2.33-10.914,8.031-13.18c5.081-2.02,9.945-1.055,13.939,3.155c2.764,2.912,2.877,6.411,2.87,10.059
				c-0.029,15.026-0.012,30.054-0.012,45.081C130.353,254.725,129.853,254.725,129.353,254.726z"/>
			<path fill-rule="evenodd" clip-rule="evenodd" fill="#FDFDFD" d="M368.859,258.047c0,15.031,0.06,30.061-0.023,45.091
				c-0.045,8.215-5.713,14.364-12.848,14.239c-7.341-0.128-11.985-5.537-11.853-14.178c0.464-30.062,0.974-60.123,1.559-90.183
				c0.169-8.698,5.013-13.736,12.501-13.433c7.613,0.308,12.187,5.55,12.191,14.007c0.009,14.82,0.002,29.639,0.002,44.457
				C369.88,258.048,369.37,258.048,368.859,258.047z"/>
			<path fill-rule="evenodd" clip-rule="evenodd" fill="#FDFDFD" d="M400.329,259.146c0,9.323,0.093,18.648-0.027,27.971
				c-0.11,8.615-5.423,14.665-12.588,14.644c-7.575-0.022-12.872-6.234-12.751-15.146c0.249-18.437,0.544-36.873,0.874-55.309
				c0.173-9.621,5.302-15.662,13.082-15.581c7.702,0.079,12.64,6.938,12.421,16.722c-0.2,8.895-0.043,17.8-0.043,26.699
				C400.975,259.146,400.652,259.146,400.329,259.146z"/>
			<path fill-rule="evenodd" clip-rule="evenodd" fill="#FDFDFD" d="M74.621,253.638c0-9.537-0.124-19.075,0.038-28.61
				c0.142-8.37,5.887-14.531,12.999-14.342c7.005,0.188,12.397,6.705,12.283,15.074c-0.256,18.649-0.554,37.299-0.919,55.947
				c-0.178,9.063-5.438,15.194-12.84,15.242c-7.476,0.047-12.54-6.515-12.468-15.972c0.069-9.113,0.015-18.227,0.015-27.34
				C74.026,253.638,74.324,253.638,74.621,253.638z"/>
			<path fill-rule="evenodd" clip-rule="evenodd" fill="#CDBABA" d="M160.873,255.163c0,20.56,0.142,41.121-0.07,61.679
				c-0.085,8.366-5.312,13.151-13.148,12.982c-7.538-0.163-12.545-5.531-12.421-13.857c0.61-40.911,1.302-81.819,2.034-122.729
				c0.132-7.35,6.647-14.154,12.935-13.858c6.588,0.311,12.876,6.934,12.772,14.113
				C162.676,214.052,163.105,234.623,160.873,255.163z"/>
			<path fill-rule="evenodd" clip-rule="evenodd" fill="#7D4B4B" d="M340.865,203.158c-1.457,27.398-0.692,55.373-1.485,83.313
				c-0.317,11.209-0.741,22.417-0.862,33.635c-0.066,6.313-5.959,13.342-12.004,14.487c-4.96,0.939-12.14-3.672-14.51-9.382
				c-1.069-2.575-1.519-5.281-1.37-8.079c1.368-25.815,0.638-51.67,1.355-77.488c0.412-14.813,0.443-29.632,0.968-44.439
				c0.266-7.479,6.664-13.43,14.078-13.302c7.572,0.131,13.559,6.051,13.817,13.726
				C340.931,197.956,340.865,200.289,340.865,203.158z"/>
			<path fill-rule="evenodd" clip-rule="evenodd" fill="#FDFDFD" d="M138.522,247.918c0.687-20.289-0.258-37.854,1.252-55.382
				c0.546-6.342,3.813-10.181,9.577-10.278c6.599-0.112,11.1,3.8,11.039,10.225c-0.391,41.457-0.853,82.912-1.43,124.368
				c-0.097,7.02-4.427,10.659-11.479,10.45c-6.725-0.2-9.854-3.697-9.905-11.095C137.413,292.519,139.398,268.864,138.522,247.918z"
				/>
			<path fill-rule="evenodd" clip-rule="evenodd" fill="#FEFDFD" d="M336.699,257.597c0,20.119,0.027,40.238-0.013,60.357
				c-0.018,9.137-4.153,13.67-12.14,13.522c-7.519-0.14-11.407-4.724-11.278-13.698c0.583-40.44,1.153-80.881,1.928-121.318
				c0.153-8.016,5.137-12.756,12.004-12.513c7.073,0.251,11.339,5.591,11.321,13.941c-0.04,19.901-0.013,39.805-0.013,59.706
				C337.905,257.595,337.303,257.596,336.699,257.597z"/>
		</g>
	</g>
	<path display="inline" fill="#FBFAFA" d="M339,323.5c0,6.627-5.82,12-13,12l0,0c-7.18,0-13-5.373-13-12V193c0-6.627,5.82-12,13-12
		l0,0c7.18,0,13,5.373,13,12V323.5z"/>
	<path display="inline" fill="#FBFAFA" d="M400.5,294.32c0,3.688-5.82,6.68-13,6.68l0,0c-7.18,0-13-2.991-13-6.68V221.68
		c0-3.689,5.82-6.68,13-6.68l0,0c7.18,0,13,2.99,13,6.68V294.32z"/>
</g>
<g id="Layer_4">
	<path fill="#FBFAFA" d="M339,323.5c0,6.627-5.82,12-13,12l0,0c-7.18,0-13-5.373-13-12V193c0-6.627,5.82-12,13-12l0,0
		c7.18,0,13,5.373,13,12V323.5z"/>
	<path fill="#FBFAFA" d="M371,307.24c0,4.976-5.82,9.01-13,9.01l0,0c-7.18,0-13-4.034-13-9.01v-97.98c0-4.977,5.82-9.01,13-9.01l0,0
		c7.18,0,13,4.033,13,9.01V307.24z"/>
	<path fill="#FBFAFA" d="M400.5,297.318c0,3.828-5.82,6.932-13,6.932l0,0c-7.18,0-13-3.104-13-6.932v-75.387
		c0-3.829,5.82-6.932,13-6.932l0,0c7.18,0,13,3.103,13,6.932V297.318z"/>
</g>
<g id="Layer_4_copy_2">
	<path fill="#FBFAFA" d="M188.776,324.047c0,6.685,5.871,12.104,13.112,12.104l0,0c7.242,0,13.111-5.419,13.111-12.104V192.424
		c0-6.684-5.869-12.103-13.111-12.103l0,0c-7.241,0-13.112,5.419-13.112,12.103V324.047z"/>
	<path fill="#FBFAFA" d="M156.501,307.648c0,5.018,5.87,9.087,13.111,9.087l0,0c7.242,0,13.112-4.069,13.112-9.087v-98.825
		c0-5.019-5.87-9.086-13.112-9.086l0,0c-7.241,0-13.111,4.068-13.111,9.086V307.648z"/>
	<path fill="#FBFAFA" d="M126.747,297.641c0,3.861,5.87,6.991,13.112,6.991l0,0c7.241,0,13.111-3.13,13.111-6.991v-76.036
		c0-3.861-5.87-6.991-13.111-6.991l0,0c-7.242,0-13.112,3.13-13.112,6.991V297.641z"/>
	<path fill="#FBFAFA" d="M226.463,242.851c-3.751,0-6.793,5.871-6.793,13.112l0,0c0,7.242,3.042,13.111,6.793,13.111h73.873
		c3.751,0,6.793-5.869,6.793-13.111l0,0c0-7.241-3.042-13.112-6.793-13.112H226.463z"/>
</g>
</svg>
