<?xml version="1.0" encoding="utf-8"?>
<!-- Generator: Adobe Illustrator 16.0.0, SVG Export Plug-In . SVG Version: 6.00 Build 0)  -->
<!DOCTYPE svg PUBLIC "-//W3C//DTD SVG 1.1//EN" "http://www.w3.org/Graphics/SVG/1.1/DTD/svg11.dtd">
<svg version="1.1" id="Layer_1" xmlns="http://www.w3.org/2000/svg" xmlns:xlink="http://www.w3.org/1999/xlink" x="0px" y="0px"
	 width="300.365px" height="293.258px" viewBox="0 0 300.365 293.258" enable-background="new 0 0 300.365 293.258"
	 xml:space="preserve">
<g>
	<path display="none" fill-rule="evenodd" clip-rule="evenodd" fill="#FDFDFD" d="M1,250.968c2.59,8.255,5.369,16.517,11.035,23.203
		c9.855,11.634,21.853,19.743,37.762,19.763c67.482,0.081,134.965,0.093,202.446-0.02c15.852-0.026,28.073-7.944,37.621-19.813
		c8.197-10.188,11.332-22.099,11.256-35.446c-0.36-62.981,0.026-125.967-0.293-188.949c-0.079-15.554-7.938-27.868-19.744-37.7
		C274.581,6.593,266.782,3.777,258.967,1c13.166,0,26.332,0.117,39.494-0.088c2.99-0.047,3.591,0.605,3.584,3.588
		c-0.116,50.827-0.083,101.653-0.083,152.48c0,44.828-0.037,89.656,0.084,134.483c0.008,2.982-0.602,3.585-3.584,3.582
		c-97.987-0.1-195.975-0.1-293.962,0c-2.981,0.003-3.633-0.592-3.588-3.583C1.114,277.967,1,264.467,1,250.968z"/>
	<path display="none" fill-rule="evenodd" clip-rule="evenodd" fill="#FDFDFD" d="M42.995,1
		C32.762,4.437,23.064,8.745,15.535,16.906C8.619,24.403,3.758,32.909,1.896,43.023C1.828,43.39,1.309,43.673,1,43.995
		C1,30.496,1.063,16.998,0.936,3.5C0.916,1.351,1.351,0.915,3.5,0.936C16.664,1.064,29.83,1,42.995,1z"/>
	<path display="none" fill-rule="evenodd" clip-rule="evenodd" fill="#46B7E8" d="M150.643,155.083
		c0.001-6.215,0.002-12.43,0.003-18.645c1.723-0.689,1.466-2.491,1.962-3.779c4.289-11.147,12.195-18.34,23.476-22.008
		c1.229-0.399,2.706-0.147,3.668-1.302c4.527-0.788,9.229,0.848,13.683-0.989c0.451,2.316,2.568,1.758,4.006,2.209
		c23.296,7.309,32.846,33.775,20.394,54.702c-8.109,13.629-20.531,17.67-34.697,16.659c-14.781-1.057-25.016-9.698-30.647-23.557
		C152.03,157.24,152.274,155.594,150.643,155.083z"/>
	<path fill-rule="evenodd" clip-rule="evenodd" fill="#2E313A" d="M1,250.338c0-68.817,0-137.634,0-206.452
		c0.308-0.321,0.826-0.604,0.893-0.969C3.751,32.829,8.6,24.344,15.499,16.866C23.008,8.726,32.682,4.428,42.889,1
		c71.81,0,143.619,0,215.428,0c7.796,2.771,15.575,5.579,22.061,10.979c11.777,9.807,19.616,22.09,19.694,37.605
		c0.319,62.824-0.066,125.65,0.293,188.473c0.075,13.313-3.051,25.194-11.228,35.356c-9.524,11.839-21.715,19.736-37.526,19.763
		c-67.312,0.112-134.624,0.101-201.937,0.02c-15.87-0.02-27.836-8.108-37.667-19.713C6.355,266.813,3.584,258.572,1,250.338z
		 M149.947,182.676c1.22-9.069,0.171-18.181,0.522-27.266c1.627,0.511,1.384,2.152,1.842,3.282
		c5.617,13.825,15.826,22.444,30.57,23.497c14.13,1.01,26.521-3.021,34.609-16.616c12.421-20.874,2.896-47.274-20.342-54.564
		c-1.435-0.451-3.546,0.106-3.996-2.205c18.142-3.3,31.365-19.977,29.968-37.792c-1.518-19.353-16.479-34.116-35.484-34.287
		c-25.239-0.227-50.492-0.36-75.722,0.233c-13.411,0.315-24.048,6.139-30.499,18.928c-9.815,19.459-1.443,42.836,18.785,50.957
		c2.115,0.85,4.128,1.955,6.189,2.941c-1.092,0.363-2.185,0.72-3.274,1.09c-26.065,8.846-35.841,39.137-15.181,61.963
		c3.957,4.372,10.297,6.586,15.537,9.795c-0.644,2.171-2.775,2.185-4.355,2.851c-16.687,7.041-27.811,28.309-19.372,47.477
		c6.796,15.439,22.648,24.693,39.498,22.253c15.867-2.3,28.963-15.523,30.447-31.722
		C150.931,209.931,150.305,196.285,149.947,182.676z"/>
	<path fill-rule="evenodd" clip-rule="evenodd" fill="#F27264" d="M106.656,110.058c-2.066-0.989-4.084-2.097-6.205-2.948
		C80.173,98.969,71.78,75.533,81.62,56.024c6.467-12.821,17.13-18.66,30.576-18.976c25.293-0.594,50.61-0.46,75.913-0.233
		c19.053,0.171,34.053,14.972,35.574,34.373c1.4,17.861-11.856,34.58-30.044,37.889c-4.453,1.837-9.155,0.202-13.683,0.989
		c-9.733-0.01-19.466-0.021-29.199-0.031C136.057,110.042,121.356,110.05,106.656,110.058z"/>
	<path fill-rule="evenodd" clip-rule="evenodd" fill="#8162AA" d="M106.656,110.058c14.7-0.008,29.4-0.016,44.101-0.023
		c0.031,9.04,0.063,18.08,0.093,27.12c-0.001,6.215-0.002,12.43-0.003,18.645c-0.353,9.108,0.699,18.243-0.523,27.335
		c-15.531-0.015-31.062-0.029-46.593-0.044c-5.253-3.217-11.609-5.438-15.576-9.82c-20.712-22.884-10.913-53.252,15.219-62.12
		C104.466,110.78,105.562,110.422,106.656,110.058z"/>
	<path fill-rule="evenodd" clip-rule="evenodd" fill="#48B97E" d="M103.731,183.091c15.531,0.015,31.063,0.029,46.593,0.044
		c0.358,13.644,0.986,27.323-0.259,40.917c-1.487,16.239-14.616,29.497-30.523,31.803c-16.892,2.446-32.784-6.831-39.598-22.31
		c-8.46-19.217,2.692-40.538,19.421-47.597C100.949,185.28,103.085,185.267,103.731,183.091z"/>
	<path fill-rule="evenodd" clip-rule="evenodd" fill="#2E313A" d="M179.956,110.066c-0.962,1.155-2.439,0.902-3.668,1.302
		c-11.281,3.667-19.187,10.86-23.476,22.008c-0.496,1.288-0.239,3.09-1.962,3.779c-0.031-9.04-0.063-18.08-0.094-27.12
		C160.49,110.045,170.223,110.056,179.956,110.066z"/>
	<circle fill-rule="evenodd" clip-rule="evenodd" fill="#46B7E8" cx="186.271" cy="146.549" r="36.514"/>
</g>
<path fill-rule="evenodd" clip-rule="evenodd" fill="#48B97E" d="M76.977,222.148c0.021-15.796,20.841-34.131,25.734-38.221
	c0.651-0.545,1.02-0.837,1.02-0.837L95.75,205.5"/>
</svg>
