<?xml version="1.0" encoding="utf-8"?>
<!-- Generator: Adobe Illustrator 16.0.0, SVG Export Plug-In . SVG Version: 6.00 Build 0)  -->
<!DOCTYPE svg PUBLIC "-//W3C//DTD SVG 1.1//EN" "http://www.w3.org/Graphics/SVG/1.1/DTD/svg11.dtd">
<svg version="1.1" id="Layer_2" xmlns="http://www.w3.org/2000/svg" xmlns:xlink="http://www.w3.org/1999/xlink" x="0px" y="0px"
	 width="501.157px" height="488.478px" viewBox="0 0 501.157 488.478" enable-background="new 0 0 501.157 488.478"
	 xml:space="preserve">
<rect x="-0.077" y="-2.717" display="none" fill-rule="evenodd" clip-rule="evenodd" fill="#CD61A5" width="500" height="500.84"/>
<g>
	<path fill-rule="evenodd" clip-rule="evenodd" fill="#FDFCFC" d="M0,417.099C0,301.13,0,185.161,0,69.191
		c0.307-0.301,0.867-0.588,0.884-0.905c0.319-6.071,1.677-11.771,4.835-17.106c0.598-1.009,1.623-1.711,2.079-3.178
		c2.362-7.592,7.344-13.818,12.438-19.729c4.708-5.463,9.877-10.636,15.966-14.647c4.317-2.842,8.604-6.024,13.372-7.802
		C54.019,4.168,57.782,1.194,62.37,0C187.435,0,312.5,0,437.564,0c6.047,3.846,12.973,5.785,19.248,9.39
		c12.221,7.02,22.256,16.31,29.65,27.743c6.125,9.469,12.518,19.472,13.471,31.552c0-22.895,0-45.79,0-68.684
		c2.016,0.877,0.91,2.634,0.914,3.898c0.082,24.201,0.061,48.401,0.061,72.603c0,135.459,0.006,270.919-0.061,406.378
		c0,1.427,1.125,3.305-0.914,4.386c0-23.181,0-46.359,0-69.54c-1.08,6.188-2.553,12.036-5.732,17.486
		c-0.459,0.788-1.268,1.582-1.682,2.646c-2.902,7.447-7.322,14.138-12.652,20.063c-5.125,5.696-10.346,11.611-16.965,15.435
		c-4.85,2.802-8.988,6.806-14.834,8.292c-3.961,1.008-8.176,2.686-11.479,5.618c-124.74,0-249.48,0-374.22,0
		c0.037-0.979,0.101-1.753-1.293-2.075c-4.436-1.025-8.66-3.038-12.623-4.962c-6.83-3.315-13.283-7.681-18.986-12.855
		c-6.847-6.21-13.53-12.724-17.601-21.133c-3.589-7.414-9.141-13.907-10.218-22.631C1.408,421.661,2.336,418.753,0,417.099z
		 M442.437,244.14c0-29.876-0.166-59.754,0.07-89.628c0.115-14.82-0.137-29.392-5.777-43.512
		c-3.123-7.815-6.973-15.294-11.678-21.984c-5.547-7.887-12.559-14.846-20.555-20.618c-5.824-4.206-11.871-8.124-18.486-10.725
		c-4.564-1.794-9.186-3.637-14.227-4.532c-5.924-1.051-11.604-3.455-17.791-3.453c-59.104,0.021-118.207-0.122-177.309,0.098
		c-16.673,0.063-33.48-1.88-49.938,3.557c-4.663,1.541-9.88,2.64-14.071,4.742c-6.916,3.466-13.534,7.749-19.861,12.603
		c-11.068,8.492-18.85,19.223-25.401,31.011c-2.868,5.161-4.839,10.903-6.352,16.846c-1.222,4.798-3.387,9.665-3.402,14.478
		c-0.231,73.716-0.163,147.432-0.147,221.148c0,1.44-0.092,2.99,0.376,4.305c2.558,7.178,4.269,14.606,7.247,21.688
		c2.533,6.023,5.711,11.825,9.438,16.811c5.635,7.539,12.022,14.709,20.02,20.275c6.254,4.353,12.695,8.271,19.547,11.459
		c4.465,2.077,9.318,3.218,14.134,4.471c5.452,1.419,10.854,3.319,16.448,3.329c65.272,0.127,130.545-0.013,195.818,0.159
		c13.24,0.035,25.992-1.235,38.676-5.616c7.057-2.437,13.238-5.972,19.553-9.562c8.258-4.694,15.393-10.784,21.379-18.102
		c4.91-6.003,9.396-12.321,12.635-19.479c2.389-5.283,4.785-10.439,6.244-16.16c1.391-5.455,3.453-10.659,3.443-16.443
		C442.404,315.583,442.437,279.861,442.437,244.14z"/>
	<path display="none" fill-rule="evenodd" clip-rule="evenodd" fill="#851719" d="M0,417.099c2.336,1.654,1.408,4.563,1.648,6.51
		c1.077,8.724,6.629,15.217,10.218,22.631c4.071,8.409,10.754,14.923,17.601,21.133c5.704,5.175,12.156,9.54,18.986,12.855
		c3.962,1.924,8.187,3.937,12.623,4.962c1.394,0.322,1.33,1.096,1.293,2.075c-19.743,0-39.486-0.069-59.228,0.08
		c-2.726,0.021-3.233-0.586-3.218-3.25C0.058,461.763,0,439.431,0,417.099z"/>
	<path display="none" fill-rule="evenodd" clip-rule="evenodd" fill="#851719" d="M436.589,487.265
		c3.303-2.933,7.518-4.61,11.479-5.618c5.846-1.486,9.984-5.49,14.834-8.292c6.619-3.823,11.84-9.738,16.965-15.435
		c5.33-5.926,9.75-12.616,12.652-20.063c0.414-1.063,1.223-1.857,1.682-2.646c3.18-5.45,4.652-11.299,5.732-17.486
		c0,23.181,0,46.359,0,69.54C478.818,487.265,457.705,487.265,436.589,487.265z"/>
	<path display="none" fill-rule="evenodd" clip-rule="evenodd" fill="#851719" d="M499.933,0c0,22.895,0,45.79,0,68.684
		c-0.953-12.08-7.346-22.083-13.471-31.552c-7.395-11.433-17.43-20.723-29.65-27.743c-6.275-3.604-13.201-5.544-19.248-9.39
		C458.353,0,479.144,0,499.933,0z"/>
	<path display="none" fill-rule="evenodd" clip-rule="evenodd" fill="#851719" d="M62.37,0c-4.587,1.194-8.351,4.168-12.796,5.825
		c-4.768,1.778-9.055,4.96-13.372,7.802c-6.089,4.011-11.258,9.184-15.966,14.647c-5.094,5.91-10.075,12.136-12.438,19.729
		c-0.456,1.467-1.481,2.169-2.079,3.178c-3.158,5.335-4.516,11.035-4.835,17.106C0.867,68.603,0.307,68.89,0,69.191
		C0,47.184,0.059,25.175-0.076,3.168C-0.092,0.5,0.421-0.101,3.144-0.08C22.885,0.069,42.627,0,62.37,0z"/>
	<path display="none" fill-rule="evenodd" clip-rule="evenodd" fill="#851719" d="M442.437,244.14
		c0,35.722-0.033,71.443,0.033,107.165c0.01,5.784-2.053,10.988-3.443,16.443c-1.459,5.721-3.855,10.877-6.244,16.16
		c-3.238,7.158-7.725,13.477-12.635,19.479c-5.986,7.317-13.121,13.407-21.379,18.102c-6.314,3.59-12.496,7.125-19.553,9.562
		c-12.684,4.381-25.436,5.651-38.676,5.616c-65.273-0.172-130.546-0.032-195.818-0.159c-5.594-0.01-10.996-1.91-16.448-3.329
		c-4.816-1.253-9.669-2.394-14.134-4.471c-6.852-3.188-13.292-7.106-19.547-11.459c-7.998-5.566-14.385-12.736-20.02-20.275
		c-3.727-4.985-6.906-10.787-9.438-16.811c-2.978-7.081-4.689-14.51-7.247-21.688c-0.468-1.314-0.376-2.864-0.376-4.305
		c-0.016-73.716-0.084-147.432,0.147-221.148c0.015-4.813,2.18-9.68,3.402-14.478c1.513-5.942,3.484-11.685,6.352-16.846
		c6.551-11.788,14.333-22.519,25.401-31.011c6.327-4.854,12.945-9.137,19.861-12.603c4.191-2.102,9.408-3.201,14.071-4.742
		c16.458-5.437,33.266-3.494,49.938-3.557c59.102-0.22,118.206-0.078,177.309-0.098c6.188-0.002,11.867,2.401,17.791,3.453
		c5.041,0.895,9.662,2.738,14.227,4.532c6.615,2.601,12.662,6.519,18.486,10.725c7.996,5.772,15.008,12.731,20.555,20.618
		c4.705,6.689,8.555,14.168,11.678,21.984c5.641,14.12,5.893,28.691,5.777,43.512C442.271,184.386,442.437,214.263,442.437,244.14z
		 M276.669,367.535c34.852-7.33,61.912-26.521,80.77-56.26c19.334-30.498,24.564-63.965,16.029-99.354
		c-4.424-18.343-12.9-34.737-24.719-49.167c-17.838-21.777-40.434-36.674-68.004-43.41c-19.869-4.855-39.918-5.015-59.804-0.468
		c-21.774,4.979-40.915,15.259-57.179,30.688c-16.592,15.741-28.464,34.158-35.37,56.293c-7.203,23.089-7.464,46.166-1.976,69.062
		c3.68,15.35,10.778,29.837,20.273,42.806c9.708,13.26,21.603,24.163,35.38,33.116c13.45,8.74,28.041,14.107,43.822,17.045
		C242.916,371.057,259.716,370.942,276.669,367.535z M374.513,149.069c21.215,1.402,32.529-15.014,33.648-29.392
		c1.51-19.377-16.791-33.551-32.164-33.814c-15.148-0.26-30.666,14.175-31.291,28.905c-0.51,12.019,3.223,21.475,12.174,28.622
		C361.875,147.378,368.019,150.251,374.513,149.069z"/>
	<path display="none" fill-rule="evenodd" clip-rule="evenodd" fill="#FDFDFC" d="M277.23,367.738
		c-16.953,3.406-33.753,3.521-50.777,0.352c-15.781-2.938-30.373-8.305-43.822-17.045c-13.777-8.953-25.673-19.855-35.381-33.115
		c-9.495-12.969-16.594-27.457-20.273-42.807c-5.488-22.896-5.227-45.973,1.977-69.061c6.906-22.136,18.777-40.553,35.37-56.294
		c16.265-15.43,35.405-25.71,57.179-30.688c19.887-4.547,39.935-4.387,59.804,0.468c27.57,6.736,50.166,21.633,68.004,43.41
		c11.818,14.429,20.295,30.823,24.719,49.167c8.535,35.389,3.305,68.855-16.029,99.354
		C339.142,341.217,312.082,360.408,277.23,367.738z M326.039,243.715c0.428-7.926-1.402-15.129-3.715-22.396
		c-1.971-6.193-4.117-12.305-7.742-17.577c-4.604-6.696-8.908-13.81-15.85-18.554c-5.73-3.914-11.059-8.369-17.855-10.687
		c-3.998-1.363-8.205-2.585-11.9-4.328c-6.219-2.935-13.238,0.872-18.951-3.29c-5.631,4.338-12.539,1.193-18.918,3.395
		c-8.287,2.861-16.369,6.053-23.491,10.752c-7.562,4.99-14.017,11.605-19.05,19.465c-3.349,5.23-5.731,10.766-8.164,16.439
		c-3.087,7.201-4.891,14.482-5.371,22.166c-0.568,9.07,0.637,17.852,3.724,26.514c2.038,5.721,4.358,11.184,7.387,16.439
		c4.241,7.361,9.524,13.619,16.013,19.217c9.793,8.445,21.135,14.043,33.402,16.178c7.346,1.279,14.978,2.893,23.363,1.037
		c9.404-2.08,18.469-4.387,27.117-8.436c7.596-3.555,14.527-8.734,19.736-14.836c6.244-7.311,11.563-15.588,14.859-25.236
		C323.626,261.213,326.353,252.736,326.039,243.715z"/>
</g>
<circle display="none" fill-rule="evenodd" clip-rule="evenodd" fill="#FDFDFC" cx="250.89" cy="241.75" r="77.687"/>
<ellipse fill-rule="evenodd" clip-rule="evenodd" fill="#FDFDFC" cx="376.745" cy="118.521" rx="33.265" ry="32.231"/>
<path fill-rule="evenodd" clip-rule="evenodd" fill="#FDFDFC" d="M250.471,116.521c-69.492,0-125.826,56.334-125.826,125.827
	c0,69.491,56.334,125.827,125.826,125.827s125.828-56.336,125.828-125.827C376.298,172.855,319.962,116.521,250.471,116.521z
	 M250.471,311.553c-38.221,0-69.205-30.984-69.205-69.205c0-38.221,30.984-69.205,69.205-69.205
	c38.22,0,69.205,30.984,69.205,69.205C319.675,280.568,288.691,311.553,250.471,311.553z"/>
</svg>
