<?xml version="1.0" encoding="utf-8"?>
<!-- Generator: Adobe Illustrator 16.0.0, SVG Export Plug-In . SVG Version: 6.00 Build 0)  -->
<!DOCTYPE svg PUBLIC "-//W3C//DTD SVG 1.1//EN" "http://www.w3.org/Graphics/SVG/1.1/DTD/svg11.dtd">
<svg version="1.1" id="Layer_1" xmlns="http://www.w3.org/2000/svg" xmlns:xlink="http://www.w3.org/1999/xlink" x="0px" y="0px"
	 width="299.963px" height="292.962px" viewBox="0 0 299.963 292.962" enable-background="new 0 0 299.963 292.962"
	 xml:space="preserve">
<g>
	<path fill-rule="evenodd" clip-rule="evenodd" fill="#FFCB2B" d="M1,250.696c0-68.991,0-137.982,0-206.974
		c3.453-10.974,7.792-21.475,16.773-29.238c8.854-7.652,18.389-12.957,30.876-12.9c66.812,0.302,133.625,0.372,200.435-0.064
		C261.448,1.439,272.191,4.245,281.43,12c11.655,9.784,19.375,22.185,19.434,37.772c0.237,62.979-0.07,125.961,0.236,188.94
		c0.063,13.089-3.103,24.688-11.153,34.808c-9.73,12.227-22.11,20.093-38.204,20.121c-65.646,0.118-131.292,0.056-196.938,0.041
		c-7.53-0.002-14.821,0.297-22.037-3.721c-7.881-4.39-15.095-9.185-20.748-16.203C6.532,266.946,3.689,258.854,1,250.696z
		 M229.521,271.021c2.408-0.148,5.247-0.196,8.055-0.516c19.009-2.163,32.933-12.913,35.876-28.944
		c3.864-21.05-3.405-34.433-20.019-44.356c-7.027-4.196-14.554-7.339-22.047-10.559c-4.434-1.904-8.973-3.665-12.692-6.854
		c-4.03-3.456-5.517-7.852-4.038-13.015c1.441-5.033,5.019-7.672,10.103-8.38c7.688-1.07,13.891,1.56,17.99,8.099
		c1.951,3.111,3.382,3.056,6.085,1.06c4.549-3.358,9.306-6.453,14.119-9.423c2.586-1.594,3.239-2.705,1.376-5.706
		c-15.071-24.277-53.128-22.141-67.361-6.855c-2.868,3.079-5.28,6.417-6.957,10.279c-6.801,15.659-2.231,34.424,11.022,45.221
		c5.339,4.349,11.396,7.463,17.651,10.241c6.99,3.105,14.233,5.677,20.794,9.695c5.253,3.218,8.435,7.703,7.291,14.101
		c-1.105,6.182-5.646,9.158-11.313,10.629c-12.319,3.196-23.938-1.163-31.821-12.258c-1.95-2.744-3.332-3.363-6.257-1.459
		c-4.734,3.086-9.611,6.024-14.685,8.496c-3.784,1.845-3.592,3.644-1.534,6.711C192.63,264.333,209.267,270.827,229.521,271.021z
		 M163.939,186.775c0.012,0,0.023,0,0.035,0c0-15.664-0.089-31.329,0.072-46.991c0.034-3.319-0.998-4.309-4.242-4.185
		c-5.99,0.229-12.013,0.347-17.988-0.029c-4.318-0.271-5.656,0.893-5.622,5.427c0.219,28.66,0.126,57.323,0.085,85.985
		c-0.004,2.99-0.054,6.031-0.583,8.959c-1.122,6.218-4.477,9.3-10.598,10.304c-8.872,1.455-14.741-2.844-18.788-10.141
		c-1.62-2.921-2.908-3.737-5.973-1.632c-4.797,3.294-9.831,6.293-14.982,9c-3.354,1.762-3.555,3.313-1.66,6.497
		c11.928,20.056,40.927,27.523,62.131,15.827c5.389-2.973,9.649-7.091,12.666-12.444c3.857-6.846,5.379-14.318,5.423-22.084
		C163.998,216.437,163.939,201.606,163.939,186.775z"/>
	<path display="none" fill-rule="evenodd" clip-rule="evenodd" fill="#FFFFFF" d="M1,250.696c2.689,8.158,5.532,16.25,11.019,23.063
		c5.653,7.019,12.866,11.813,20.748,16.203c7.216,4.018,14.507,3.719,22.037,3.721c65.646,0.015,131.293,0.077,196.938-0.041
		c16.094-0.028,28.474-7.895,38.204-20.121c8.051-10.119,11.217-21.719,11.153-34.808c-0.307-62.979,0.001-125.961-0.236-188.94
		C300.805,34.185,293.085,21.783,281.43,12c-9.238-7.755-19.981-10.56-32.345-10.479C182.275,1.957,115.461,1.887,48.65,1.584
		c-12.488-0.057-22.023,5.248-30.876,12.9C8.792,22.248,4.453,32.748,1,43.722C1,29.391,1,15.06,1,0.728
		c98.987,0,197.975,0.023,296.962-0.096c3.423-0.004,4.099,0.671,4.095,4.095c-0.119,95.654-0.119,191.308,0,286.963
		c0.004,3.422-0.671,4.099-4.095,4.095c-97.653-0.119-195.308-0.119-292.962,0c-3.423,0.004-4.167-0.66-4.104-4.097
		C1.148,278.028,1,264.361,1,250.696z"/>
	<path fill-rule="evenodd" clip-rule="evenodd" fill="#FFFEFB" d="M229.521,271.021c-20.255-0.194-36.892-6.688-48.361-23.793
		c-2.058-3.067-2.25-4.866,1.534-6.711c5.073-2.472,9.95-5.41,14.685-8.496c2.925-1.904,4.307-1.285,6.257,1.459
		c7.884,11.095,19.502,15.454,31.821,12.258c5.667-1.471,10.207-4.447,11.313-10.629c1.144-6.397-2.038-10.883-7.291-14.101
		c-6.561-4.019-13.804-6.59-20.794-9.695c-6.255-2.778-12.313-5.893-17.651-10.241c-13.254-10.797-17.823-29.563-11.022-45.221
		c1.677-3.862,4.089-7.2,6.957-10.279c14.233-15.286,52.29-17.422,67.361,6.855c1.863,3.001,1.21,4.112-1.376,5.706
		c-4.813,2.97-9.57,6.064-14.119,9.423c-2.703,1.997-4.134,2.052-6.085-1.06c-4.1-6.539-10.303-9.169-17.99-8.099
		c-5.084,0.708-8.661,3.347-10.103,8.38c-1.479,5.163,0.008,9.559,4.038,13.015c3.72,3.189,8.259,4.95,12.692,6.854
		c7.493,3.22,15.02,6.362,22.047,10.559c16.613,9.924,23.883,23.307,20.019,44.356c-2.943,16.031-16.867,26.781-35.876,28.944
		C234.769,270.825,231.93,270.873,229.521,271.021z"/>
	<path fill-rule="evenodd" clip-rule="evenodd" fill="#FFFEFB" d="M163.939,186.775c0,14.831,0.059,29.662-0.024,44.493
		c-0.043,7.766-1.566,15.238-5.423,22.084c-3.017,5.354-7.277,9.472-12.666,12.444c-21.204,11.696-50.203,4.229-62.131-15.827
		c-1.895-3.185-1.694-4.735,1.66-6.497c5.152-2.707,10.186-5.706,14.982-9c3.065-2.105,4.353-1.289,5.973,1.632
		c4.046,7.297,9.916,11.596,18.788,10.141c6.122-1.004,9.476-4.086,10.598-10.304c0.529-2.928,0.579-5.969,0.583-8.959
		c0.041-28.662,0.133-57.325-0.085-85.985c-0.035-4.534,1.304-5.698,5.622-5.427c5.975,0.375,11.999,0.257,17.988,0.029
		c3.245-0.124,4.276,0.866,4.242,4.185c-0.162,15.663-0.072,31.328-0.072,46.991C163.962,186.775,163.951,186.775,163.939,186.775z"
		/>
</g>
</svg>
