<?xml version="1.0" encoding="utf-8"?>
<!-- Generator: Adobe Illustrator 16.0.0, SVG Export Plug-In . SVG Version: 6.00 Build 0)  -->
<!DOCTYPE svg PUBLIC "-//W3C//DTD SVG 1.1//EN" "http://www.w3.org/Graphics/SVG/1.1/DTD/svg11.dtd">
<svg version="1.1" xmlns="http://www.w3.org/2000/svg" xmlns:xlink="http://www.w3.org/1999/xlink" x="0px" y="0px" width="500px"
	 height="311.333px" viewBox="0 0 500 311.333" enable-background="new 0 0 500 311.333" xml:space="preserve">
<g id="Layer_2" display="none">
	<path display="inline" fill="#21B24B" d="M552,325.333c0,6.627-5.373,12-12,12H-27c-6.627,0-12-5.373-12-12v-536
		c0-6.627,5.373-12,12-12h567c6.627,0,12,5.373,12,12V325.333z"/>
</g>
<g id="Layer_3">
	<g>
		<path display="none" fill-rule="evenodd" clip-rule="evenodd" fill="#490202" d="M502.664,312.236c-162.79,0-325.58,0-488.37,0
			c-11.628,0-11.628,0-11.628-11.667c6.569,8.494,15.401,9.72,25.637,9.702c149.103-0.256,298.207-0.174,447.31-0.174
			c2.221,0,4.452,0.117,6.66-0.054c8.446-0.651,14.973-7.123,15.142-14.895c0.173-8.016-6.612-15.394-15.423-15.432
			c-46.924-0.198-93.849-0.113-140.773-0.049c-1.56,0.002-4.584-1.231-4.211,2.067c0.803,7.082-4.161,5.791-8.057,5.803
			c-22.49,0.066-44.98,0.025-67.471,0.025c-29.988,0-59.975,0.023-89.962-0.02c-3.166-0.005-8.408,0.938-8.146-3.201
			c0.428-6.729-3.68-4.666-6.621-4.671c-42.482-0.082-84.966,0.19-127.444-0.227c-10.414-0.103-19.698,0.804-26.642,9.456
			c0-92.221,0.068-184.444-0.162-276.665C2.49,6.529,3.626,5.404,9.333,5.411C173.776,5.607,338.221,5.57,502.664,5.57
			C502.664,107.792,502.664,210.014,502.664,312.236z M250.147,7.725c-61.919,0-123.839-0.005-185.759,0.003
			c-15.979,0.003-21.904,6.037-21.904,22.225c0,72.75,0,145.5,0,218.252c0,16.307,5.79,22.176,21.932,22.178
			c123.843,0.003,247.686,0.005,371.529,0c16.126-0.002,21.902-5.871,21.902-22.208c0-72.752,0-145.503,0-218.253
			c0-16.182-5.923-22.191-21.941-22.194C373.986,7.722,312.066,7.725,250.147,7.725z"/>
		<path fill-rule="evenodd" clip-rule="evenodd" fill="#F5F1F1" d="M2.666,288.902c6.943-8.652,16.228-9.559,26.642-9.456
			c42.478,0.417,84.962,0.145,127.444,0.227c2.941,0.005,7.049-2.058,6.621,4.671c-0.263,4.139,4.98,3.196,8.146,3.201
			c29.988,0.043,59.975,0.02,89.962,0.02c22.49,0,44.98,0.041,67.471-0.025c3.896-0.012,8.859,1.279,8.057-5.803
			c-0.373-3.299,2.651-2.065,4.211-2.067c46.925-0.064,93.85-0.149,140.773,0.049c8.811,0.038,15.596,7.416,15.423,15.432
			c-0.169,7.771-6.695,14.243-15.142,14.895c-2.208,0.171-4.439,0.054-6.66,0.054c-149.104,0-298.208-0.082-447.31,0.174
			c-10.236,0.018-19.068-1.208-25.637-9.702C2.666,296.68,2.666,292.791,2.666,288.902z"/>
		<path fill-rule="evenodd" clip-rule="evenodd" fill="#F7F4F4" d="M502.664,312.236c0-102.222,0-204.444,0-306.666
			c2.66-0.569,1.631,1.488,1.631,2.5c0.039,100.555,0.039,201.111,0,301.666C504.295,310.748,505.324,312.805,502.664,312.236z"/>
		<path fill-rule="evenodd" clip-rule="evenodd" fill="#F7F4F4" d="M250.147,7.725c61.919,0,123.839-0.003,185.758,0.003
			c16.019,0.003,21.941,6.013,21.941,22.194c0,72.75,0,145.501,0,218.253c0,16.337-5.776,22.206-21.902,22.208
			c-123.843,0.005-247.686,0.003-371.529,0c-16.142-0.002-21.932-5.871-21.932-22.178c0-72.752,0-145.502,0-218.252
			c0-16.188,5.925-22.222,21.904-22.225C126.308,7.72,188.228,7.725,250.147,7.725z M247.726,24.071
			c-1.767,4.514-5.644,2.079-8.326,2.087c-54.695,0.186-109.391,0.133-164.087,0.137c-11.807,0-14.168,2.329-14.17,14.028
			c-0.007,65.802-0.006,131.605-0.002,197.405c0,11.806,2.25,14.084,14.109,14.084c116.611,0.012,233.221,0.012,349.833,0
			c11.858,0,14.107-2.28,14.109-14.084c0.002-65.523-0.002-131.048-0.002-196.571c0-12.813-2.083-14.865-15.005-14.863
			c-54.419,0.005-108.837,0.052-163.255-0.135c-2.679-0.01-6.561,2.433-8.319-2.092c-2.013-2.241,0.788-2.557,1.542-3.542
			c2.073-2.708,1.729-5.234-0.593-7.311c-2.07-1.851-4.73-1.846-6.798,0.005c-2.322,2.08-2.658,4.607-0.583,7.313
			C246.934,21.514,249.738,21.827,247.726,24.071z"/>
		<path display="none" fill-rule="evenodd" clip-rule="evenodd" fill="#490202" d="M252.61,24.066
			c1.759,4.525,5.641,2.082,8.319,2.092c54.418,0.187,108.836,0.14,163.255,0.135c12.922-0.001,15.005,2.051,15.005,14.863
			c0,65.523,0.004,131.048,0.002,196.571c-0.002,11.804-2.251,14.084-14.109,14.084c-116.611,0.012-233.221,0.012-349.833,0
			c-11.86,0-14.109-2.278-14.109-14.084c-0.003-65.8-0.005-131.603,0.002-197.405c0.001-11.699,2.363-14.028,14.17-14.028
			c54.696-0.003,109.392,0.049,164.087-0.137c2.683-0.008,6.559,2.427,8.326-2.087l0.004-0.138c-1.935,3.566,1.353,2.16,2.447,2.345
			c1.692,0.29,1.729,0.077,2.424-2.345L252.61,24.066z"/>
		<path display="none" fill-rule="evenodd" clip-rule="evenodd" fill="#490202" d="M247.726,24.071
			c2.013-2.244-0.792-2.557-1.546-3.54c-2.075-2.705-1.74-5.232,0.583-7.313c2.067-1.851,4.728-1.855,6.798-0.005
			c2.322,2.077,2.666,4.603,0.593,7.311c-0.754,0.985-3.555,1.3-1.542,3.542l-0.01-0.133c-1.623-2.326-3.247-2.326-4.871,0
			L247.726,24.071z"/>
		<path fill-rule="evenodd" clip-rule="evenodd" fill="#F7F4F4" d="M247.729,23.933c1.624-2.326,3.248-2.326,4.871,0
			c-0.694,2.422-0.731,2.635-2.424,2.345C249.082,26.092,245.794,27.499,247.729,23.933z"/>
	</g>
</g>
</svg>
