<?xml version="1.0" encoding="utf-8"?>
<!-- Generator: Adobe Illustrator 16.0.0, SVG Export Plug-In . SVG Version: 6.00 Build 0)  -->
<!DOCTYPE svg PUBLIC "-//W3C//DTD SVG 1.1//EN" "http://www.w3.org/Graphics/SVG/1.1/DTD/svg11.dtd">
<svg version="1.1" id="Layer_2" xmlns="http://www.w3.org/2000/svg" xmlns:xlink="http://www.w3.org/1999/xlink" x="0px" y="0px"
	 width="500px" height="488.302px" viewBox="0 -1.743 500 488.302" enable-background="new 0 -1.743 500 488.302"
	 xml:space="preserve">
<rect y="-1.743" fill="#CD61A5" width="500" height="500.84"/>
<g>
	<path fill="#FDFCFC" d="M501.566,69.364c0,116.258,0,232.516,0,348.774c-1.604,0.521-0.792,1.875-0.967,2.871
		c-0.563,3.23-0.283,6.92-1.805,9.592c-2.238,3.936-3.96,8.08-6.077,12.039c-3.209,6-6.831,11.797-11.529,16.752
		c-4.653,4.906-9.315,9.777-15.055,13.594c-5.473,3.641-10.426,7.855-16.987,9.822c-3.688,1.105-6.905,3.852-10.632,5.672
		c21.019,0,42.034,0,63.052,0c-0.877,2.018-2.638,0.91-3.902,0.914c-19.521,0.09-39.04,0.063-58.562,0.063
		c-144.774,0-289.549,0.004-434.325-0.059c-1.428-0.004-3.31,1.125-4.391-0.918c20.806,0,41.611,0,62.417,0
		c0.038-0.547,0.076-1.094,0.114-1.641c-5.105-0.492-9.333-3.402-13.798-5.34c-7.033-3.051-13.613-7.625-19.28-13.012
		c-6.62-6.293-13.385-12.563-17.447-21.004c-3.614-7.512-8.79-14.244-10.312-22.84c-0.357-2.014,0.684-4.877-1.694-6.508
		c0-116.258,0-232.515,0-348.773c0.311-0.295,0.875-0.576,0.894-0.889c0.362-6.063,1.638-11.79,4.857-17.111
		c0.605-1,1.62-1.753,2.077-3.213c2.383-7.625,7.412-13.846,12.487-19.819c4.663-5.488,9.791-10.664,15.885-14.661
		c4.163-2.729,8.203-6.005,12.795-7.618C54.115,4.392,58.111,1.325,62.913,0c125.376,0,250.752,0,376.128,0
		c0.997,2.015,3.232,0.135,4.244,1.184c4.481,4.649,11.388,4.454,16.25,8.539c4.818,4.05,10.332,7.22,15.032,11.532
		c6.245,5.729,12.067,12.022,15.759,19.434c3.542,7.114,8.777,13.616,9.655,22.122C500.184,64.771,499.244,67.674,501.566,69.364z
		 M210.248,280.354c0,29.944,0.06,59.892-0.074,89.836c-0.017,3.843,1.099,5.071,5,5.024c16.272-0.194,32.55-0.172,48.823-0.006
		c3.243,0.031,4.001-0.93,4.043-4.086c0.457-34.442-1.108-68.896,0.815-103.336c0.916-16.404,8.672-32.083,27.313-34.988
		c8.18-1.274,16.115-0.851,23.422,3.123c11.492,6.249,15.207,17.549,15.42,29.212c0.643,35.142,0.282,70.304,0.152,105.455
		c-0.012,3.492,0.601,4.707,4.444,4.648c16.107-0.25,32.225-0.242,48.334-0.01c4.009,0.059,5.122-0.958,5.104-5.055
		c-0.153-36.238,0.174-72.479-1.017-108.707c-0.321-9.786,0.082-19.502-2.692-29.19c-2.152-7.517-3.831-15.039-7.679-21.989
		c-9.26-16.727-24.682-24.157-42.324-27.34c-7.234-1.305-14.841-1.416-22.525-0.547c-11.82,1.337-22.584,4.649-32.43,11.124
		c-5.556,3.654-10.266,8.217-13.945,13.813c-0.785,1.196-1.809,2.657-3.468,2.153c-1.687-0.512-0.86-2.232-0.883-3.398
		c-0.091-4.881-0.283-9.78,0.034-14.642c0.26-3.986-1.256-4.992-5.051-4.945c-15.133,0.186-30.271,0.226-45.403-0.017
		c-4.296-0.069-5.533,1.185-5.507,5.494C210.333,221.438,210.249,250.896,210.248,280.354z M113.804,280.384
		c0.008,0,0.016,0,0.023,0c0,29.623,0.11,59.246-0.109,88.869c-0.037,4.861,1.542,6.045,6.14,5.974
		c15.785-0.245,31.577-0.203,47.362-0.017c3.952,0.047,5.484-0.943,5.352-5.18c-0.348-11.17-0.742-22.361-0.846-33.514
		c-0.454-48.5-0.251-97.007-0.11-145.51c0.013-4.285-1.148-5.561-5.47-5.49c-15.296,0.252-30.598,0.091-45.898,0.101
		c-5.955,0.004-6.44,0.488-6.441,6.384C113.801,221.463,113.804,250.923,113.804,280.384z M176.334,126.053
		c1.512-18.581-13.902-33.789-32.253-33.723c-20.405,0.073-32.585,13.999-34.183,30.221c-2.341,23.769,17.726,36.399,31.311,37.044
		C161.356,160.551,177.702,144.97,176.334,126.053z"/>
	<path display="none" fill="#851719" d="M0.387,418.138c2.378,1.629,1.337,4.492,1.694,6.506c1.521,8.596,6.698,15.33,10.312,22.842
		c4.062,8.441,10.827,14.709,17.447,21.002c5.667,5.387,12.248,9.961,19.28,13.012c4.465,1.938,8.693,4.848,13.798,5.34
		c-0.038,0.547-0.076,1.094-0.114,1.641c-20.805,0-41.611,0-62.417,0C0.387,465.033,0.387,441.585,0.387,418.138z"/>
	<path display="none" fill="#851719" d="M501.566,488.478c-21.018,0-42.033,0-63.052,0c3.727-1.82,6.943-4.564,10.632-5.672
		c6.563-1.967,11.516-6.182,16.987-9.82c5.738-3.816,10.4-8.688,15.055-13.594c4.698-4.957,8.32-10.752,11.529-16.752
		c2.117-3.959,3.839-8.104,6.077-12.039c1.521-2.674,1.24-6.363,1.805-9.592c0.175-0.998-0.637-2.35,0.967-2.873
		C501.566,441.585,501.566,465.033,501.566,488.478z"/>
	<path display="none" fill="#851719" d="M62.913,0c-4.802,1.325-8.797,4.392-13.53,6.053c-4.593,1.613-8.633,4.889-12.795,7.618
		c-6.094,3.997-11.222,9.172-15.885,14.661c-5.075,5.974-10.104,12.194-12.487,19.819c-0.457,1.46-1.472,2.213-2.077,3.213
		C2.92,56.685,1.644,62.411,1.282,68.475c-0.019,0.313-0.583,0.594-0.894,0.889c0-22.063,0.059-44.125-0.077-66.188
		C0.294,0.501,0.809-0.101,3.539-0.08C23.329,0.069,43.121,0,62.913,0z"/>
	<path display="none" fill="#851719" d="M501.566,69.364c-2.322-1.69-1.384-4.593-1.585-6.553
		c-0.878-8.506-6.113-15.008-9.655-22.122c-3.69-7.412-9.513-13.704-15.759-19.434c-4.7-4.312-10.214-7.482-15.032-11.532
		c-4.862-4.085-11.769-3.89-16.25-8.539c-1.012-1.049-3.247,0.831-4.244-1.184c19.865,0,39.73,0.05,59.595-0.064
		c2.443-0.014,3.008,0.552,2.995,2.996C501.521,25.075,501.566,47.22,501.566,69.364z"/>
	<path display="none" fill="#861819" d="M210.249,280.354c0-29.457,0.085-58.916-0.092-88.372c-0.026-4.309,1.211-5.563,5.507-5.494
		c15.131,0.243,30.27,0.203,45.404,0.017c3.795-0.046,5.31,0.959,5.05,4.945c-0.317,4.862-0.125,9.761-0.034,14.642
		c0.021,1.166-0.803,2.886,0.883,3.398c1.659,0.504,2.682-0.957,3.469-2.153c3.68-5.596,8.39-10.159,13.944-13.813
		c9.847-6.475,20.608-9.787,32.43-11.124c7.686-0.869,15.291-0.758,22.525,0.547c17.644,3.184,33.064,10.613,42.324,27.34
		c3.848,6.95,5.525,14.472,7.679,21.989c2.774,9.688,2.371,19.404,2.692,29.19c1.189,36.229,0.862,72.469,1.017,108.707
		c0.018,4.097-1.096,5.111-5.104,5.055c-16.109-0.232-32.227-0.24-48.334,0.01c-3.845,0.059-4.456-1.156-4.444-4.648
		c0.13-35.151,0.489-70.313-0.152-105.455c-0.213-11.663-3.928-22.964-15.42-29.212c-7.307-3.973-15.243-4.397-23.422-3.123
		c-18.642,2.904-26.397,18.583-27.313,34.988c-1.924,34.438-0.357,68.893-0.814,103.336c-0.042,3.156-0.8,4.117-4.043,4.086
		c-16.273-0.166-32.551-0.188-48.823,0.006c-3.901,0.047-5.017-1.184-5-5.024C210.307,340.246,210.248,310.298,210.249,280.354z"/>
	<path display="none" fill="#861819" d="M113.804,280.384c0-29.461-0.003-58.92,0.002-88.381c0.001-5.896,0.486-6.38,6.441-6.384
		c15.3-0.01,30.603,0.151,45.898-0.101c4.322-0.071,5.483,1.205,5.47,5.49c-0.142,48.503-0.344,97.01,0.11,145.51
		c0.104,11.151,0.498,22.344,0.846,33.515c0.132,4.234-1.4,5.227-5.352,5.18c-15.786-0.188-31.578-0.229-47.362,0.016
		c-4.597,0.07-6.176-1.111-6.14-5.975c0.219-29.621,0.109-59.244,0.109-88.869C113.82,280.384,113.812,280.384,113.804,280.384z"/>
	<path display="none" fill="#861819" d="M176.334,126.053c1.368,18.917-14.978,34.498-35.125,33.542
		c-13.585-0.645-33.652-13.276-31.311-37.044c1.598-16.222,13.778-30.147,34.183-30.221
		C162.433,92.264,177.846,107.472,176.334,126.053z"/>
</g>
</svg>
