<?xml version="1.0" encoding="utf-8"?>
<!-- Generator: Adobe Illustrator 16.0.0, SVG Export Plug-In . SVG Version: 6.00 Build 0)  -->
<!DOCTYPE svg PUBLIC "-//W3C//DTD SVG 1.1//EN" "http://www.w3.org/Graphics/SVG/1.1/DTD/svg11.dtd">
<svg version="1.1" id="Layer_1" xmlns="http://www.w3.org/2000/svg" xmlns:xlink="http://www.w3.org/1999/xlink" x="0px" y="0px"
	 width="285.352px" height="285.344px" viewBox="0 0 285.352 285.344" enable-background="new 0 0 285.352 285.344"
	 xml:space="preserve">
<g>
	<path display="none" fill-rule="evenodd" clip-rule="evenodd" fill="#FDFDFC" d="M141.897,290.619
		c-48.994,0-97.988-0.035-146.981,0.082c-2.982,0.008-3.584-0.6-3.581-3.582c0.099-95.654,0.099-191.31,0-286.964
		c-0.003-2.981,0.599-3.584,3.581-3.581c97.987,0.099,195.975,0.099,293.962,0c2.981-0.003,3.585,0.599,3.582,3.581
		c-0.1,95.654-0.1,191.31,0,286.964c0.003,2.982-0.6,3.59-3.582,3.582C239.885,290.583,190.891,290.619,141.897,290.619z
		 M198.238,210.375c16.157,0,32.315-0.09,48.472,0.041c7.447,0.059,13.603-2.588,18.859-7.709c3.869-3.77,6.822-8.191,9.191-12.99
		c6.658-13.49,9.303-27.994,10.431-42.831c0.571-7.504-0.473-14.897-1.775-22.297c-2.005-11.394-4.886-22.463-11.015-32.396
		c-5.133-8.32-11.518-15.533-22.023-16.209c-9.456-0.608-18.981-0.076-28.474-0.228c-2.977-0.048-3.678,1.239-3.625,3.904
		c0.098,4.994,0.281,10.023-0.175,14.982c-0.667,7.249,0.902,14.771-2.122,21.732c-6.939,15.965-21.598,31.311-44.762,31.02
		c-3.997-0.05-8.001,0.154-11.992-0.006c-17.65-0.708-35.298-0.377-52.946-0.015c-15.243,0.313-29.677,14.833-29.764,30.005
		c-0.132,22.984-0.034,45.973-0.267,68.957c-0.089,8.898,3.562,15.711,10.182,21.234c3.468,2.893,7.239,5.342,11.34,7.236
		c20.458,9.447,41.929,11.268,63.956,8.119c13.145-1.881,25.702-5.666,36.597-13.645c7.95-5.824,12.894-13.191,12.319-23.656
		c-0.4-7.307-0.27-14.662,0.008-21.98c0.142-3.748-1.009-4.826-4.772-4.789c-19.153,0.184-38.311,0.021-57.465,0.145
		c-3.394,0.021-5.136-0.441-5.099-4.525c0.036-3.971,1.93-4.15,4.951-4.135C164.925,210.421,181.581,210.376,198.238,210.375z
		 M88.428,75.805c-15.826,0-31.657,0.218-47.477-0.082c-9.511-0.18-16.7,3.7-22.455,10.843c-3.359,4.169-6.157,8.721-8.126,13.704
		c-8.079,20.435-10.57,41.433-6.47,63.154c2.466,13.068,6.208,25.57,14.642,36.166c5.098,6.404,11.58,10.572,20.004,10.734
		c8.826,0.17,17.661-0.076,26.486,0.113c3.333,0.072,4.307-1.152,4.282-4.354c-0.081-10.328,0.097-20.658,0.154-30.984
		c0.038-6.872,2.066-13.006,6.195-18.567c9.438-12.714,22.304-17.692,37.752-17.625c20.657,0.089,41.314-0.165,61.971-0.198
		c4.938-0.008,9.596-0.906,13.883-3.406c13.416-7.824,20.849-19.388,21.076-35.021c0.278-19.154-0.36-38.336,0.406-57.465
		c0.538-13.423-5.54-22.113-16.284-28.605C181.764,6.539,167.713,3.292,153.14,2.231c-20.425-1.485-40.232,0.957-58.596,10.809
		c-12.089,6.486-19.522,15.717-18.318,30.399c0.516,6.288,0.342,12.667-0.005,18.979c-0.233,4.222,1.194,5.329,5.317,5.285
		c19.156-0.204,38.315-0.026,57.473-0.157c3.245-0.022,4.297,0.917,4.342,4.222c0.046,3.499-1.366,4.111-4.447,4.09
		C122.08,75.742,105.253,75.803,88.428,75.805z"/>
	<path fill-rule="evenodd" clip-rule="evenodd" fill="#F8C63F" d="M198.238,210.376c-16.657,0-33.313,0.045-49.97-0.039
		c-3.021-0.016-4.915,0.164-4.951,4.135c-0.038,4.084,1.705,4.547,5.099,4.525c19.154-0.123,38.312,0.039,57.465-0.145
		c3.764-0.037,4.914,1.041,4.772,4.789c-0.277,7.318-0.408,14.674-0.008,21.98c0.574,10.465-4.369,17.832-12.319,23.656
		c-10.895,7.979-23.452,11.764-36.597,13.645c-22.027,3.148-43.498,1.328-63.956-8.119c-4.101-1.895-7.872-4.344-11.34-7.236
		c-6.62-5.523-10.271-12.336-10.182-21.234c0.232-22.984,0.135-45.973,0.267-68.957c0.087-15.172,14.521-29.691,29.764-30.005
		c17.647-0.362,35.296-0.692,52.946,0.015c3.991,0.16,7.995-0.043,11.992,0.006c23.164,0.291,37.822-15.055,44.762-31.02
		c3.024-6.96,1.455-14.483,2.122-21.732c0.456-4.959,0.272-9.988,0.175-14.982c-0.053-2.665,0.648-3.952,3.625-3.904
		c9.492,0.152,19.018-0.38,28.474,0.228c10.506,0.676,16.891,7.889,22.023,16.209c6.129,9.933,9.01,21.002,11.015,32.396
		c1.303,7.399,2.347,14.792,1.775,22.297c-1.128,14.837-3.772,29.341-10.431,42.831c-2.369,4.799-5.322,9.221-9.191,12.99
		c-5.257,5.121-11.412,7.768-18.859,7.709C230.554,210.285,214.396,210.375,198.238,210.376z M168.298,247.625
		c-0.043,7.34,5.609,13.057,12.865,13.014c6.95-0.041,12.679-5.762,12.78-12.758c0.098-6.799-5.746-12.881-12.538-13.053
		C174.194,234.646,168.34,240.363,168.298,247.625z"/>
	<path fill-rule="evenodd" clip-rule="evenodd" fill="#5078BC" d="M88.428,75.804c16.825-0.001,33.652-0.062,50.477,0.055
		c3.081,0.021,4.493-0.591,4.447-4.09c-0.044-3.306-1.097-4.245-4.342-4.222c-19.157,0.131-38.317-0.047-57.473,0.157
		c-4.123,0.044-5.55-1.063-5.317-5.285c0.348-6.312,0.521-12.691,0.005-18.979c-1.204-14.682,6.229-23.913,18.318-30.399
		c18.364-9.852,38.171-12.293,58.596-10.809c14.573,1.06,28.624,4.308,41.327,11.981c10.744,6.492,16.822,15.182,16.284,28.605
		c-0.767,19.129-0.128,38.311-0.406,57.465c-0.228,15.633-7.66,27.197-21.076,35.021c-4.287,2.5-8.944,3.397-13.883,3.406
		c-20.657,0.033-41.314,0.287-61.971,0.198c-15.448-0.067-28.313,4.912-37.752,17.625c-4.129,5.562-6.158,11.695-6.195,18.567
		c-0.057,10.326-0.234,20.656-0.154,30.984c0.025,3.201-0.949,4.426-4.282,4.354c-8.825-0.189-17.66,0.057-26.486-0.113
		c-8.425-0.162-14.907-4.33-20.004-10.734c-8.433-10.596-12.175-23.098-14.642-36.166c-4.1-21.722-1.609-42.719,6.47-63.154
		c1.97-4.983,4.767-9.535,8.126-13.704c5.755-7.143,12.944-11.023,22.455-10.843C56.771,76.023,72.602,75.805,88.428,75.804z
		 M105.74,50.834c7.408,0.058,13.274-5.469,13.354-12.583c0.078-6.873-5.706-12.742-12.643-12.83
		c-7.567-0.095-13.154,5.252-13.189,12.625C93.229,45.27,98.602,50.778,105.74,50.834z"/>
	<path display="none" fill-rule="evenodd" clip-rule="evenodd" fill="#FDFDFC" d="M168.298,247.625
		c0.042-7.262,5.896-12.979,13.107-12.797c6.792,0.172,12.636,6.254,12.538,13.053c-0.102,6.996-5.83,12.717-12.78,12.758
		C173.907,260.681,168.255,254.964,168.298,247.625z"/>
	<path display="none" fill-rule="evenodd" clip-rule="evenodd" fill="#FDFDFC" d="M105.74,50.834
		c-7.138-0.056-12.512-5.564-12.477-12.788c0.035-7.373,5.622-12.72,13.189-12.625c6.937,0.087,12.72,5.957,12.643,12.83
		C119.014,45.365,113.148,50.892,105.74,50.834z"/>
</g>
</svg>
