<?xml version="1.0" encoding="utf-8"?>
<!-- Generator: Adobe Illustrator 16.0.0, SVG Export Plug-In . SVG Version: 6.00 Build 0)  -->
<!DOCTYPE svg PUBLIC "-//W3C//DTD SVG 1.1//EN" "http://www.w3.org/Graphics/SVG/1.1/DTD/svg11.dtd">
<svg version="1.1" xmlns="http://www.w3.org/2000/svg" xmlns:xlink="http://www.w3.org/1999/xlink" x="0px" y="0px" width="256.5px"
	 height="199.333px" viewBox="0 0 256.5 199.333" enable-background="new 0 0 256.5 199.333" xml:space="preserve">
<g id="Layer_2" display="none">
	<path display="inline" fill="#21B24B" d="M552,325.333c0,6.627-5.373,12-12,12H-27c-6.627,0-12-5.373-12-12v-536
		c0-6.627,5.373-12,12-12h567c6.627,0,12,5.373,12,12V325.333z"/>
</g>
<g id="Layer_3">
	<g>
		<path display="none" fill-rule="evenodd" clip-rule="evenodd" fill="#F5F5F5" d="M312.18,243.279c-1.256,0-2.513,0-3.768,0
			c-0.105-0.954-0.789-0.982-1.55-1.091c-7.577-1.083-15.154-2.167-22.72-3.329c-10.025-1.539-20.037-3.172-30.063-4.723
			c-8.707-1.347-17.428-2.601-26.134-3.96c-9.671-1.511-19.324-3.142-28.999-4.633c-10.027-1.546-20.077-2.945-30.105-4.485
			c-8.62-1.323-17.214-2.803-25.834-4.125c-10.029-1.538-20.078-2.943-30.107-4.473c-8.796-1.342-17.574-2.807-26.368-4.162
			c-10.908-1.68-21.827-3.281-32.735-4.956c-10.114-1.553-20.221-3.156-30.33-4.742c-8.878-1.394-17.753-2.806-26.632-4.189
			c-8.355-1.303-16.713-2.581-25.071-3.867c-8.97-1.381-17.939-2.77-26.912-4.134c-6.423-0.978-12.857-1.886-19.276-2.89
			c-6.593-1.03-13.174-2.14-19.76-3.214c0-1.794,0-3.588,0-5.382c0.764-0.086,0.972-0.564,1.082-1.277
			c1.405-9.053,2.89-18.093,4.262-27.15c2.225-14.687,4.338-29.39,6.581-44.074c1.88-12.309,3.912-24.594,5.813-36.898
			c1.874-12.131,3.646-24.279,5.502-36.413c1.559-10.197,3.167-20.388,4.766-30.58c1.393-8.874,2.85-17.737,4.194-26.618
			c0.998-6.595,1.862-13.21,2.786-19.816c1.794,0,3.588,0,5.382,0c0.089,0.59,0.373,0.958,1.013,1.051
			c6.163,0.899,12.326,1.801,18.485,2.723c8.625,1.291,17.252,2.563,25.868,3.91c7.384,1.154,14.745,2.458,22.13,3.594
			c10.026,1.542,20.073,2.948,30.1,4.487c8.617,1.324,17.211,2.802,25.829,4.123c10.027,1.537,20.074,2.942,30.102,4.472
			c8.794,1.342,17.571,2.807,26.363,4.162c10.905,1.68,21.823,3.279,32.729,4.955c10.111,1.553,20.216,3.158,30.324,4.744
			c8.876,1.394,17.75,2.802,26.627,4.186c8.353,1.302,16.708,2.6,25.066,3.866c11.085,1.678,22.18,3.296,33.263,4.992
			c10.025,1.535,20.039,3.141,30.059,4.712c8.965,1.406,17.925,2.84,26.896,4.2c5.366,0.813,10.75,1.509,16.125,2.258
			c0,1.794,0,3.588,0,5.382c-0.59,0.089-0.96,0.372-1.051,1.013c-0.536,3.786-1.072,7.573-1.644,11.354
			c-1.476,9.763-2.944,19.527-4.465,29.282c-1.342,8.612-2.798,17.206-4.118,25.821c-1.536,10.022-2.937,20.066-4.477,30.09
			c-1.322,8.614-2.811,17.203-4.13,25.818c-1.536,10.023-2.925,20.069-4.459,30.093c-1.333,8.702-2.799,17.385-4.173,26.081
			c-1.429,9.047-2.925,18.086-4.185,27.157C313.694,232.174,312.447,237.662,312.18,243.279z M147.518,196.368
			c2.277-0.589,2.801-2.318,3.896-3.423c4.921-4.965,9.785-9.989,14.575-15.081c3.763-4.001,7.553-7.986,11.374-11.922
			c4.563-4.697,9.132-9.391,13.653-14.131c0.937-0.981,1.74-2.408,3.286-2.398c3.26,0.021,6.56-0.043,9.77,0.428
			c8.91,1.307,17.3,0.024,25.099-4.509c9.543-5.55,15.812-13.725,18.79-24.331c1.068-3.806,1.262-7.757,1.547-11.728
			c0.458-6.372,0.843-12.755,1.306-19.13c0.522-7.183,0.764-14.389,1.345-21.566c0.625-7.719,1.581-15.384-0.202-23.113
			c-2.045-8.866-6.664-16.199-13.458-21.932c-7.722-6.517-17.136-8.728-27.116-9.036c-7.194-0.222-14.38-0.736-21.563-1.218
			c-8.483-0.569-16.955-1.299-25.438-1.858c-8.433-0.556-16.876-0.94-25.31-1.485c-8.497-0.549-16.979-1.317-25.479-1.777
			c-7.205-0.389-14.389-1.031-21.606-1.305c-8.759-0.333-17.497-1.218-26.247-1.816c-4.746-0.325-9.512-0.407-14.245-0.857
			c-6.156-0.584-12.043,0.358-17.66,2.786c-5.577,2.411-10.458,5.823-14.458,10.508c-3.774,4.421-6.637,9.292-8.219,14.875
			c-1.108,3.909-1.41,7.927-1.773,11.981c-0.76,8.479-1.134,16.978-1.805,25.459c-0.671,8.49-1.021,17.004-1.653,25.498
			c-0.542,7.277,0.336,14.271,3.504,20.903c2.382,4.987,5.38,9.391,9.596,13.183c4.383,3.942,9.223,6.676,14.715,8.437
			c4.919,1.578,10.034,1.594,15.146,1.88c10.607,0.594,21.192,1.591,31.792,2.33c11.297,0.788,22.603,1.465,33.904,2.198
			c11.208,0.729,22.41,1.593,33.626,2.107c2.635,0.121,2.612,1.129,2.444,3.083c-0.525,6.107-0.94,12.224-1.354,18.34
			c-0.421,6.209-0.795,12.422-1.183,18.634C147.914,189.608,147.729,192.835,147.518,196.368z"/>
		<path display="none" fill-rule="evenodd" clip-rule="evenodd" fill="#FEFEFE" d="M-94.184,180.306
			c6.586,1.074,13.167,2.184,19.76,3.214c6.419,1.004,12.853,1.912,19.276,2.89c8.973,1.364,17.942,2.753,26.912,4.134
			c8.358,1.286,16.716,2.564,25.071,3.867c8.879,1.384,17.754,2.796,26.632,4.189c10.109,1.586,20.215,3.189,30.33,4.742
			c10.908,1.675,21.828,3.276,32.735,4.956c8.794,1.355,17.572,2.82,26.368,4.162c10.029,1.529,20.079,2.935,30.107,4.473
			c8.62,1.322,17.214,2.802,25.834,4.125c10.028,1.54,20.078,2.939,30.105,4.485c9.674,1.491,19.328,3.122,28.999,4.633
			c8.706,1.359,17.427,2.613,26.134,3.96c10.025,1.551,20.037,3.184,30.063,4.723c7.565,1.162,15.143,2.246,22.72,3.329
			c0.761,0.108,1.444,0.137,1.55,1.091c-133.391,0-266.783-0.005-400.173,0.051c-2.018,0-2.484-0.453-2.475-2.473
			C-94.149,220.673-94.184,200.49-94.184,180.306z"/>
		<path display="none" fill-rule="evenodd" clip-rule="evenodd" fill="#FEFEFE" d="M347.164,14.532
			c-5.375-0.749-10.759-1.444-16.125-2.258c-8.972-1.36-17.932-2.794-26.896-4.2c-10.02-1.572-20.033-3.178-30.059-4.712
			c-11.083-1.696-22.178-3.314-33.263-4.992c-8.359-1.266-16.713-2.564-25.066-3.866c-8.877-1.384-17.751-2.792-26.627-4.186
			c-10.108-1.586-20.212-3.191-30.324-4.744c-10.907-1.675-21.824-3.275-32.729-4.955c-8.792-1.354-17.569-2.82-26.363-4.162
			c-10.028-1.53-20.075-2.935-30.102-4.472c-8.618-1.321-17.212-2.799-25.829-4.123c-10.027-1.539-20.074-2.945-30.1-4.487
			c-7.386-1.137-14.747-2.44-22.13-3.594c-8.615-1.347-17.243-2.619-25.868-3.91c-6.159-0.921-12.322-1.824-18.485-2.723
			c-0.641-0.093-0.924-0.461-1.013-1.051c132.853,0,265.706,0.005,398.559-0.05c2.018,0,2.483,0.453,2.475,2.473
			C347.13-25.477,347.164-5.473,347.164,14.532z"/>
		<path display="none" fill-rule="evenodd" clip-rule="evenodd" fill="#FEFEFE" d="M312.18,243.279
			c0.268-5.617,1.515-11.104,2.284-16.654c1.26-9.071,2.756-18.11,4.185-27.157c1.374-8.696,2.84-17.379,4.173-26.081
			c1.534-10.023,2.923-20.069,4.459-30.093c1.319-8.615,2.808-17.204,4.13-25.818c1.54-10.023,2.94-20.067,4.477-30.09
			c1.32-8.615,2.776-17.209,4.118-25.821c1.521-9.755,2.989-19.52,4.465-29.282c0.571-3.781,1.107-7.568,1.644-11.354
			c0.091-0.641,0.461-0.924,1.051-1.013c0,73.648-0.01,147.295,0.051,220.943c0.002,2.018-0.451,2.498-2.474,2.477
			C333.889,243.218,323.034,243.279,312.18,243.279z"/>
		<path display="none" fill-rule="evenodd" clip-rule="evenodd" fill="#FEFEFE" d="M-59.199-47.903
			c-0.924,6.606-1.788,13.222-2.786,19.816c-1.344,8.881-2.801,17.744-4.194,26.618c-1.6,10.191-3.207,20.382-4.766,30.58
			c-1.855,12.134-3.628,24.282-5.502,36.413c-1.9,12.305-3.933,24.59-5.813,36.898c-2.242,14.685-4.355,29.388-6.581,44.074
			c-1.372,9.058-2.856,18.098-4.262,27.15c-0.11,0.713-0.318,1.191-1.082,1.277c0-73.481,0.011-146.963-0.056-220.444
			c-0.002-2.1,0.561-2.452,2.513-2.433C-80.885-47.849-70.042-47.903-59.199-47.903z"/>
		<path fill-rule="evenodd" clip-rule="evenodd" fill="#FBFAFA" d="M147.518,196.368c0.21-3.532,0.396-6.76,0.596-9.986
			c0.387-6.212,0.762-12.425,1.183-18.634c0.415-6.116,0.83-12.232,1.354-18.34c0.168-1.954,0.191-2.962-2.444-3.083
			c-11.217-0.515-22.418-1.379-33.626-2.107c-11.301-0.733-22.607-1.41-33.904-2.198c-10.6-0.739-21.185-1.736-31.792-2.33
			c-5.111-0.286-10.227-0.302-15.146-1.88c-5.492-1.761-10.332-4.494-14.715-8.437c-4.215-3.792-7.214-8.195-9.596-13.183
			c-3.167-6.632-4.046-13.626-3.504-20.903c0.633-8.494,0.982-17.008,1.653-25.498c0.671-8.481,1.045-16.981,1.805-25.459
			c0.363-4.054,0.666-8.073,1.773-11.981c1.583-5.583,4.445-10.454,8.219-14.875c4-4.685,8.881-8.098,14.458-10.508
			c5.617-2.427,11.504-3.37,17.66-2.786c4.732,0.45,9.499,0.532,14.245,0.857c8.75,0.598,17.488,1.483,26.247,1.816
			c7.217,0.274,14.401,0.916,21.606,1.305c8.5,0.459,16.983,1.228,25.479,1.777c8.434,0.545,16.877,0.93,25.31,1.485
			c8.483,0.56,16.956,1.289,25.438,1.858c7.183,0.482,14.369,0.997,21.563,1.218c9.98,0.308,19.395,2.52,27.116,9.036
			c6.794,5.733,11.413,13.066,13.458,21.932c1.783,7.729,0.827,15.394,0.202,23.113c-0.581,7.178-0.822,14.384-1.345,21.566
			c-0.463,6.375-0.848,12.758-1.306,19.13c-0.286,3.971-0.479,7.922-1.547,11.728c-2.978,10.606-9.246,18.781-18.79,24.331
			c-7.798,4.533-16.189,5.815-25.099,4.509c-3.21-0.471-6.51-0.407-9.77-0.428c-1.546-0.01-2.35,1.417-3.286,2.398
			c-4.521,4.74-9.09,9.434-13.653,14.131c-3.821,3.936-7.611,7.921-11.374,11.922c-4.79,5.092-9.653,10.116-14.575,15.081
			C150.319,194.049,149.795,195.779,147.518,196.368z M124.228,67.635c-0.737-2.938-0.096-6.01-2.072-8.683
			c-2.427-3.283-5.836-4.194-9.613-4.163c-4.384,0.037-8.631,0.344-11.457,4.607c-1.784,2.691-1.414,5.58-1.404,8.421
			c0.025,7.262,0.347,14.522,0.37,21.784c0.015,4.399,1.923,7.675,6.015,9.515c4.117,1.852,8.23,1.313,12.354,0.006
			c4.112-1.303,5.853-4.169,5.822-8.387C124.188,83.036,124.228,75.335,124.228,67.635z M94.331,64.01
			c-0.222,0-0.443,0.001-0.666,0.001c0-1.867,0.064-3.737-0.028-5.6c-0.043-0.88,0.27-2.44-1.066-2.312
			c-2.287,0.221-4.645-0.583-6.842,0.461c-0.15,0.071-0.068,0.672-0.061,1.026c0.096,4.294,0.227,8.588,0.28,12.882
			c0.014,1.152,0.451,2.761-1.298,2.993c-1.606,0.213-3.278-0.126-4.907-0.019c-1.396,0.092-1.487-0.896-1.506-1.697
			c-0.108-4.523-0.214-9.052-0.098-13.574c0.041-1.59-0.737-1.853-1.874-1.879c-6.011-0.14-6.405,0.128-6.149,5.829
			c0.529,11.794,0.684,23.592,0.756,35.394c0.01,1.591,0.291,2.962,2.56,2.599c1.455-0.232,2.984-0.004,4.48,0.023
			c0.953,0.019,1.132-0.434,1.093-1.349c-0.188-4.417-0.19-8.845-0.436-13.258c-0.3-5.405-0.376-5.4,5.253-5.618
			c0.089-0.004,0.178-0.025,0.264-0.051c1.66-0.492,2.181,0.006,2.074,1.819c-0.275,4.649,0.345,9.296,0.188,13.966
			c-0.13,3.876,0.119,3.847,3.997,4.091c0.545,0.034,1.059-0.129,1.547-0.059c2.395,0.346,2.635-1.061,2.542-2.897
			c-0.092-1.826-0.098-3.66-0.099-5.49C94.326,82.199,94.331,73.104,94.331,64.01z M174.466,97.856
			c2.469,0.534,2.581-0.52,2.132-2.455c-1.523-6.556-2.948-13.138-4.318-19.728c-1.356-6.523-2.583-13.074-3.913-19.603
			c-0.228-1.116-0.703-1.83-2.243-1.531c-1.48,0.288-3.086-0.154-4.628-0.084c-1.591,0.071-2.937,0.149-3.167,2.558
			c-0.41,4.293-1.462,8.522-2.198,12.787c-1.533,8.875-2.989,17.764-4.598,26.624c-0.241,1.327,0.105,2.039,1.245,2.049
			c2.101,0.02,4.393,0.21,6.229-0.563c1.017-0.427,0.642-2.738,0.781-4.238c0.095-1.016,0.115-2.931,1.924-2.625
			c1.375,0.231,2.646-0.053,3.943-0.121c1.868-0.097,2.53,0.825,2.713,2.433c0.556,4.886,0.553,4.887,5.427,4.565
			C174.063,97.904,174.331,97.87,174.466,97.856z M145.701,98.76c4.523-0.129,4.523-0.129,4.375-4.615
			c-0.002-0.088,0-0.179,0.018-0.266c0.307-1.575-0.273-2.054-1.895-1.892c-2.449,0.245-4.924,0.235-7.389,0.311
			c-1.507,0.046-2.6-0.176-2.568-2.211c0.058-3.824-0.167-7.653-0.263-11.48c-0.154-6.176-0.29-12.353-0.456-18.528
			c-0.042-1.563,0.492-3.416-0.49-4.603c-1.167-1.41-3.01,0.092-4.565-0.188c-1.861-0.335-3.465-0.263-2.759,2.445
			c0.146,0.557-0.166,1.215-0.138,1.821c0.576,12.634,0.3,25.292,1.005,37.925c0.071,1.284,0.031,1.351,1.244,1.323
			C136.445,98.699,141.074,98.76,145.701,98.76z M188.448,56.944c0.976-2.86-0.645-3.392-3.263-2.941
			c-0.339,0.058-0.709-0.072-1.056-0.036c-1.866,0.19-2.809,0.893-2.498,3.102c0.362,2.567,0.334,5.208,0.273,7.813
			c-0.154,6.609,0.523,13.163,1.199,19.717c0.299,2.896,2.554,0.787,3.802,1.33c1.092,0.475,1.232-0.295,1.307-1.28
			C188.904,75.516,189.098,66.384,188.448,56.944z M182.445,94.46c-0.242,3.284,0.051,3.647,3.296,3.352
			c1.871-0.17,4.611,0.522,4.028-2.979c-0.205-1.231-0.312-2.433-0.244-3.68c0.067-1.249-0.988-1.967-1.86-1.645
			c-1.588,0.586-3.301-0.52-4.648,0.391C181.275,91.076,182.599,92.922,182.445,94.46z"/>
		<path display="none" fill-rule="evenodd" clip-rule="evenodd" fill="#F5F5F5" d="M124.228,67.635c0,7.7-0.04,15.4,0.016,23.101
			c0.031,4.218-1.71,7.084-5.822,8.387c-4.124,1.307-8.237,1.846-12.354-0.006c-4.092-1.84-6-5.115-6.015-9.515
			c-0.023-7.262-0.345-14.522-0.37-21.784c-0.01-2.841-0.38-5.729,1.404-8.421c2.826-4.263,7.073-4.57,11.457-4.607
			c3.777-0.032,7.186,0.879,9.613,4.163C124.132,61.625,123.491,64.697,124.228,67.635z M107.645,86.071c0.167,0,0.333,0,0.5-0.001
			c0,1.333-0.131,2.682,0.037,3.993c0.162,1.263,0.24,2.609,1.67,3.384c3.466,1.876,6.619,0.02,6.547-4.11
			c-0.142-8.215-0.397-16.429-0.698-24.64c-0.11-3.011-1.482-4.157-4.357-4.026c-2.063,0.094-3.718,2.256-3.709,4.689
			C107.662,72.264,107.645,79.167,107.645,86.071z"/>
		<path display="none" fill-rule="evenodd" clip-rule="evenodd" fill="#F5F5F5" d="M94.331,64.01c0,9.094-0.004,18.188,0.004,27.282
			c0.001,1.83,0.007,3.664,0.099,5.49c0.093,1.837-0.146,3.243-2.542,2.897c-0.488-0.07-1.002,0.093-1.547,0.059
			c-3.878-0.244-4.127-0.215-3.997-4.091c0.157-4.67-0.463-9.316-0.188-13.966c0.107-1.813-0.414-2.312-2.074-1.819
			c-0.085,0.025-0.175,0.047-0.264,0.051c-5.629,0.218-5.553,0.213-5.253,5.618c0.245,4.413,0.248,8.841,0.436,13.258
			c0.039,0.915-0.141,1.367-1.093,1.349c-1.496-0.027-3.025-0.256-4.48-0.023c-2.27,0.363-2.55-1.008-2.56-2.599
			c-0.072-11.802-0.228-23.6-0.756-35.394c-0.256-5.701,0.138-5.968,6.149-5.829c1.137,0.026,1.914,0.289,1.874,1.879
			c-0.116,4.522-0.01,9.05,0.098,13.574c0.019,0.801,0.11,1.789,1.506,1.697c1.629-0.107,3.301,0.231,4.907,0.019
			c1.749-0.232,1.312-1.841,1.298-2.993c-0.053-4.294-0.184-8.588-0.28-12.882c-0.008-0.354-0.089-0.955,0.061-1.026
			c2.198-1.044,4.556-0.241,6.842-0.461c1.335-0.129,1.022,1.432,1.066,2.312c0.092,1.862,0.028,3.732,0.028,5.6
			C93.887,64.011,94.109,64.01,94.331,64.01z"/>
		<path display="none" fill-rule="evenodd" clip-rule="evenodd" fill="#F5F5F5" d="M174.466,97.856
			c-0.135,0.014-0.402,0.048-0.67,0.066c-4.874,0.321-4.872,0.32-5.427-4.565c-0.183-1.607-0.845-2.529-2.713-2.433
			c-1.297,0.068-2.568,0.353-3.943,0.121c-1.81-0.306-1.83,1.609-1.924,2.625c-0.139,1.5,0.236,3.812-0.781,4.238
			c-1.837,0.773-4.129,0.583-6.229,0.563c-1.14-0.01-1.486-0.722-1.245-2.049c1.609-8.86,3.065-17.749,4.598-26.624
			c0.736-4.265,1.788-8.494,2.198-12.787c0.229-2.408,1.576-2.486,3.167-2.558c1.542-0.069,3.147,0.372,4.628,0.084
			c1.54-0.299,2.015,0.415,2.243,1.531c1.331,6.529,2.557,13.08,3.913,19.603c1.37,6.59,2.795,13.172,4.318,19.728
			C177.047,97.336,176.935,98.39,174.466,97.856z M163.868,66.972c-0.16,0.006-0.32,0.013-0.481,0.019
			c-0.637,4.84-1.314,9.674-1.896,14.52c-0.349,2.911,0.168,3.324,3.214,2.999c1.458-0.156,2.289-0.511,1.691-2.329
			c-0.456-1.385-0.331-2.95-0.58-4.416C165.202,74.161,164.521,70.569,163.868,66.972z"/>
		<path display="none" fill-rule="evenodd" clip-rule="evenodd" fill="#F5F5F5" d="M145.701,98.76c-4.627,0-9.256-0.062-13.88,0.042
			c-1.212,0.027-1.172-0.039-1.244-1.323c-0.705-12.634-0.43-25.291-1.005-37.925c-0.028-0.606,0.284-1.265,0.138-1.821
			c-0.707-2.708,0.897-2.78,2.759-2.445c1.555,0.28,3.398-1.222,4.565,0.188c0.982,1.187,0.448,3.04,0.49,4.603
			c0.166,6.176,0.301,12.353,0.456,18.528c0.096,3.827,0.321,7.656,0.263,11.48c-0.032,2.035,1.061,2.257,2.568,2.211
			c2.465-0.075,4.94-0.065,7.389-0.311c1.622-0.162,2.202,0.316,1.895,1.892c-0.017,0.087-0.02,0.178-0.018,0.266
			C150.224,98.631,150.224,98.631,145.701,98.76z"/>
		<path display="none" fill-rule="evenodd" clip-rule="evenodd" fill="#F5F5F5" d="M188.448,56.944
			c0.65,9.44,0.456,18.572-0.236,27.704c-0.074,0.985-0.215,1.755-1.307,1.28c-1.248-0.543-3.503,1.565-3.802-1.33
			c-0.676-6.554-1.353-13.107-1.199-19.717c0.061-2.604,0.089-5.246-0.273-7.813c-0.311-2.209,0.632-2.911,2.498-3.102
			c0.347-0.036,0.717,0.094,1.056,0.036C187.804,53.552,189.424,54.084,188.448,56.944z"/>
		<path display="none" fill-rule="evenodd" clip-rule="evenodd" fill="#F5F5F5" d="M182.445,94.46
			c0.154-1.538-1.169-3.385,0.572-4.562c1.347-0.91,3.06,0.195,4.648-0.391c0.873-0.322,1.927,0.396,1.86,1.645
			c-0.067,1.247,0.039,2.448,0.244,3.68c0.583,3.502-2.157,2.81-4.028,2.979C182.496,98.108,182.203,97.745,182.445,94.46z"/>
		<path fill-rule="evenodd" clip-rule="evenodd" fill="#FBFAFA" d="M107.645,86.071c0-6.903,0.018-13.807-0.01-20.711
			c-0.009-2.434,1.646-4.596,3.709-4.689c2.875-0.131,4.247,1.016,4.357,4.026c0.301,8.211,0.556,16.425,0.698,24.64
			c0.072,4.13-3.081,5.986-6.547,4.11c-1.431-0.774-1.508-2.121-1.67-3.384c-0.168-1.312-0.037-2.66-0.037-3.993
			C107.978,86.071,107.811,86.071,107.645,86.071z"/>
		<path fill-rule="evenodd" clip-rule="evenodd" fill="#FBFAFA" d="M163.868,66.972c0.654,3.597,1.334,7.188,1.948,10.792
			c0.25,1.466,0.125,3.031,0.58,4.416c0.598,1.818-0.233,2.173-1.691,2.329c-3.046,0.325-3.563-0.088-3.214-2.999
			c0.582-4.846,1.259-9.68,1.896-14.52C163.547,66.985,163.708,66.978,163.868,66.972z"/>
	</g>
</g>
</svg>
