<?xml version="1.0" encoding="utf-8"?>
<!-- Generator: Adobe Illustrator 16.0.0, SVG Export Plug-In . SVG Version: 6.00 Build 0)  -->
<!DOCTYPE svg PUBLIC "-//W3C//DTD SVG 1.1//EN" "http://www.w3.org/Graphics/SVG/1.1/DTD/svg11.dtd">
<svg version="1.1" id="Layer_1" xmlns="http://www.w3.org/2000/svg" xmlns:xlink="http://www.w3.org/1999/xlink" x="0px" y="0px"
	 width="299.963px" height="292.963px" viewBox="0 0 299.963 292.963" enable-background="new 0 0 299.963 292.963"
	 xml:space="preserve">
<g>
	<path display="none" fill-rule="evenodd" clip-rule="evenodd" fill="#FFFFFF" d="M151.481,294.963
		c-48.994,0-97.988-0.034-146.981,0.083c-2.982,0.007-3.584-0.601-3.581-3.583c0.099-95.654,0.099-191.309,0-286.963
		C0.915,1.519,1.518,0.916,4.5,0.918c97.987,0.099,195.975,0.099,293.962,0c2.981-0.003,3.585,0.599,3.582,3.581
		c-0.1,95.654-0.1,191.309,0,286.963c0.003,2.981-0.599,3.591-3.582,3.583C249.469,294.929,200.475,294.963,151.481,294.963z
		 M218.892,34.062c-6.831-5.406-13.185-11.348-19.644-17.184C188.193,6.89,175.193,4.5,161.026,8.495
		c-6.939,1.957-12.861,5.976-18.337,10.562c-7.928,6.64-13.879,14.954-19.818,23.249c1.49,1.289,2.123,0.008,2.947-0.306
		c10.451-3.973,20.972-5.909,32.273-3.576c15.342,3.167,22.845,16.562,34.814,24.604c-5.604,2.91-8.405,7.615-12.048,11.5
		c-12.905,13.766-25.946,27.405-38.993,41.037c-1.538,1.608-2.508,2.242,0.129,4.174c4.495,3.293,8.329,7.482,12.5,11.229
		c5.867,5.271,11.875,10.389,17.637,15.771c1.81,1.689,2.989,1.212,3.92-0.411c1.597-2.781,4.075-4.722,6.114-7.074
		c12.673-14.613,25.276-29.286,37.974-43.877c1.146-1.317,2.237-2.433,1.757-4.311c0.232-0.273,0.466-0.545,0.698-0.818
		c5.699,6.157,12.79,10.864,18.46,17.56c-1.091,0.958-2.054,1.887-3.1,2.709c-3.654,2.872-2.429,5.178,0.619,7.607
		c6.826,5.443,13.434,11.159,19.44,17.501c2.134,2.252,3.474,2.764,5.791,0.125c6.961-7.926,14.223-15.588,21.281-23.43
		c4.499-4.998,8.786-10.188,13.294-15.177c1.558-1.724,2.503-3.173,0.249-4.927c-6.368-4.958-12.294-10.406-18.036-16.071
		c-5.561-5.485-5.571-5.413-11.114-0.231c-1.009,0.943-1.865,3.396-3.87,1.185c-5.197-5.728-12.196-9.602-16.574-16.164
		l-0.113,0.114c3.386-0.366,4.62-3.473,6.712-5.438c0.674-0.633,0.458-1.661-0.753-2.73c-9.361-8.268-18.503-16.785-27.745-25.188
		c-0.763-0.694-2.17-2.499-2.603-1.378c-1.248,3.229-5.894,3.812-5.749,7.863L218.892,34.062z M264.352,245.557
		c1.638-6.914,1.808-12.9,0.761-19.179c-1.61-9.645-6.225-17.513-13.197-23.778c-11.802-10.606-25.928-12.95-41.112-9.461
		c-2.164,0.497-3.377-0.206-4.626-1.473c-6.37-6.46-13.424-12.157-20.134-18.235c-12.1-10.96-23.861-22.287-36.112-33.096
		c-12.49-11.021-24.353-22.758-36.968-33.626c-4.845-4.174-9.341-8.738-14.236-12.871c-3.611-3.049-9.367-5.503-8.644-11.771
		c0.43-3.726,0.308-7.293,0.079-11.022c-0.5-8.129-3.39-15.352-8.245-21.372c-12.154-15.07-28.023-20.068-46.832-15.161
		c-0.632,0.165-2.041-1.167-2.072,0.751c-0.014,0.874,0.415,1.221,1.104,1.828c5.818,5.132,11.176,10.831,17.272,15.591
		c5.469,4.271,9.591,9.971,15.49,13.68C57.722,76.602,48.575,86.752,39.538,97c-1.858,2.107-2.98,2.072-5.063,0.079
		c-8.704-8.331-17.6-16.462-26.506-24.578c-1.588-1.447-3.557-2.476-6.119-4.222c0.675,9.033-0.891,17.054,1.804,24.981
		c6.749,19.848,28.786,33.848,52.191,27.241c2.517-0.71,3.851-0.182,5.606,1.396c8.306,7.469,16.829,14.697,25.103,22.201
		c15.878,14.401,31.542,29.042,47.515,43.338c4.434,3.968,8.528,8.316,13.099,12.082c10.092,8.317,19.465,17.406,29.068,26.25
		c1.006,0.926,1.361,1.707,1.152,3.6c-0.648,5.865-1.076,11.87,0.216,17.787c2.672,12.235,9.314,21.615,20.09,28.007
		c10.809,6.411,22.196,7.591,34.225,3.926c2.145-0.653,2.934-1.278,0.96-2.591c-4.863-3.234-8.404-7.866-12.808-11.586
		c-6.166-5.209-11.961-10.854-17.947-16.277c-1.229-1.114-1.339-1.91-0.122-3.251c8.625-9.503,17.171-19.076,25.698-28.667
		c1.444-1.626,2.424-2.107,4.351-0.294c5.137,4.834,10.615,9.304,15.866,14.02C253.288,235.267,258.553,240.215,264.352,245.557z
		 M131.115,198.139c-0.34-0.431-0.568-0.825-0.892-1.114c-11.291-10.069-22.618-20.098-33.861-30.22
		c-1.914-1.724-2.639-0.042-3.57,0.907c-3.928,4.006-7.653,8.228-11.52,12.264c-12.025,12.552-23.982,25.158-35.788,37.92
		c-9.914,10.717-20.264,21.03-30.421,31.521c-0.347,0.358-0.717,0.695-1.049,1.065c-1.279,1.425-1.52,2.182,0.426,3.788
		c5.596,4.618,10.716,9.809,16.089,14.702c6.571,5.984,13.213,11.893,19.813,17.845c1.157,1.043,2.223,1.9,3.634,0.287
		c4.111-4.703,8.337-9.307,12.399-14.05c11.506-13.438,22.889-26.982,34.444-40.376c9.549-11.069,19.276-21.982,28.924-32.966
		C130.172,199.225,130.597,198.733,131.115,198.139z"/>
	<path fill-rule="evenodd" clip-rule="evenodd" fill="#0C3D5F" d="M264.352,245.557c-5.799-5.342-11.063-10.29-16.437-15.115
		c-5.251-4.716-10.729-9.186-15.866-14.02c-1.927-1.813-2.906-1.332-4.351,0.294c-8.527,9.591-17.073,19.164-25.698,28.667
		c-1.217,1.341-1.107,2.137,0.122,3.251c5.986,5.423,11.781,11.068,17.947,16.277c4.403,3.72,7.944,8.352,12.808,11.586
		c1.974,1.313,1.185,1.938-0.96,2.591c-12.028,3.665-23.416,2.485-34.225-3.926c-10.775-6.392-17.418-15.771-20.09-28.007
		c-1.292-5.917-0.864-11.922-0.216-17.787c0.209-1.893-0.146-2.674-1.152-3.6c-9.603-8.844-18.976-17.933-29.068-26.25
		c-4.57-3.766-8.665-8.114-13.099-12.082c-15.973-14.296-31.636-28.937-47.515-43.338c-8.273-7.504-16.797-14.732-25.103-22.201
		c-1.755-1.578-3.089-2.107-5.606-1.396c-23.405,6.607-45.443-7.393-52.191-27.241c-2.695-7.927-1.129-15.948-1.804-24.981
		c2.562,1.746,4.531,2.775,6.119,4.222c8.906,8.116,17.802,16.247,26.506,24.578c2.083,1.993,3.205,2.028,5.063-0.079
		c9.037-10.248,18.185-20.398,27.342-30.637c-5.899-3.709-10.021-9.409-15.49-13.68c-6.096-4.76-11.454-10.458-17.272-15.591
		c-0.689-0.607-1.118-0.954-1.104-1.828c0.031-1.918,1.44-0.586,2.072-0.751c18.809-4.907,34.678,0.091,46.832,15.161
		c4.855,6.021,7.745,13.243,8.245,21.372c0.229,3.729,0.351,7.296-0.079,11.022c-0.723,6.268,5.033,8.722,8.644,11.771
		c4.895,4.133,9.391,8.696,14.236,12.871c12.615,10.868,24.478,22.605,36.968,33.626c12.251,10.809,24.012,22.136,36.112,33.096
		c6.71,6.078,13.764,11.775,20.134,18.235c1.249,1.267,2.462,1.97,4.626,1.473c15.185-3.489,29.311-1.146,41.112,9.461
		c6.973,6.266,11.587,14.134,13.197,23.778C266.159,232.656,265.989,238.643,264.352,245.557z"/>
	<path fill-rule="evenodd" clip-rule="evenodd" fill="#0C3D5F" d="M221.895,91.066c0.48,1.878-0.611,2.994-1.757,4.311
		c-12.697,14.591-25.301,29.264-37.974,43.877c-2.039,2.353-4.518,4.293-6.114,7.074c-0.931,1.623-2.11,2.1-3.92,0.411
		c-5.762-5.382-11.77-10.5-17.637-15.771c-4.171-3.747-8.004-7.935-12.5-11.229c-2.637-1.932-1.667-2.566-0.129-4.174
		c13.046-13.632,26.088-27.271,38.993-41.037c3.643-3.886,6.444-8.591,12.048-11.5c-11.97-8.042-19.473-21.437-34.814-24.604
		c-11.301-2.333-21.822-0.397-32.273,3.576c-0.824,0.313-1.458,1.594-2.947,0.306c5.939-8.295,11.89-16.609,19.818-23.249
		c5.476-4.586,11.398-8.605,18.337-10.562c14.167-3.995,27.167-1.605,38.222,8.383c6.459,5.836,12.813,11.778,19.647,17.18
		c0.349,0.761,0.769,1.422,1.772,1.101c0.104-0.033,0.232-0.331,0.188-0.434c-0.453-1.038-1.303-0.656-2.073-0.547
		c-0.145-4.051,4.501-4.634,5.749-7.863c0.433-1.121,1.84,0.684,2.603,1.378c9.242,8.404,18.384,16.92,27.745,25.188
		c1.211,1.069,1.427,2.098,0.753,2.73c-2.092,1.964-3.326,5.071-6.712,5.438c0.322-2.374-1.338-2.179-3.195-2.428
		c0.807,1.688,1.627,2.615,3.309,2.314c4.378,6.562,11.377,10.437,16.574,16.164c2.005,2.21,2.861-0.242,3.87-1.185
		c5.543-5.182,5.554-5.254,11.114,0.231c5.742,5.665,11.668,11.113,18.036,16.071c2.254,1.754,1.309,3.204-0.249,4.927
		c-4.508,4.989-8.795,10.179-13.294,15.177c-7.059,7.842-14.32,15.504-21.281,23.43c-2.317,2.639-3.657,2.127-5.791-0.125
		c-6.007-6.342-12.614-12.058-19.44-17.501c-3.048-2.429-4.273-4.735-0.619-7.607c1.046-0.822,2.009-1.75,3.1-2.709
		c-5.67-6.696-12.761-11.403-18.46-17.56c-0.938-1.219-2.104-1.764-3.718-1.373C219.458,90.392,220.421,91.095,221.895,91.066z
		 M196.357,68.601c2.379,2.337,3.508,5.133,7.435,5.358C201.804,71.224,200.362,68.833,196.357,68.601z M207.364,78.605
		c2.371,2.302,3.466,5.146,7.362,5.304C212.788,81.202,211.342,78.817,207.364,78.605z M224.299,38.753
		c0.849,2.369,2.061,2.575,4.5,2.331C226.943,40.123,225.894,39.579,224.299,38.753z M236.763,51.112
		c0.683-0.261,1.111-0.425,1.54-0.588c-0.355-0.484-0.615-1.155-1.093-1.397c-0.44-0.223-1.367-0.197-1.394,0.583
		C235.801,50.161,236.419,50.633,236.763,51.112z"/>
	<path fill-rule="evenodd" clip-rule="evenodd" fill="#0C3D5F" d="M131.115,198.139c-0.518,0.595-0.942,1.086-1.371,1.574
		c-9.647,10.983-19.375,21.896-28.924,32.966c-11.556,13.394-22.938,26.938-34.444,40.376c-4.062,4.743-8.288,9.347-12.399,14.05
		c-1.411,1.613-2.477,0.756-3.634-0.287c-6.601-5.952-13.243-11.86-19.813-17.845c-5.373-4.894-10.493-10.084-16.089-14.702
		c-1.946-1.606-1.705-2.363-0.426-3.788c0.333-0.37,0.703-0.707,1.049-1.065c10.157-10.491,20.507-20.805,30.421-31.521
		c11.805-12.762,23.762-25.368,35.788-37.92c3.867-4.037,7.591-8.258,11.52-12.264c0.931-0.949,1.656-2.63,3.57-0.907
		c11.244,10.122,22.571,20.15,33.861,30.22C130.546,197.313,130.775,197.708,131.115,198.139z"/>
	<path fill-rule="evenodd" clip-rule="evenodd" fill="#FFFFFF" d="M196.357,68.601c4.005,0.231,5.446,2.623,7.435,5.358
		C199.865,73.734,198.736,70.938,196.357,68.601z"/>
	<path fill-rule="evenodd" clip-rule="evenodd" fill="#FFFFFF" d="M207.364,78.605c3.978,0.212,5.424,2.597,7.362,5.304
		C210.83,83.751,209.735,80.907,207.364,78.605z"/>
	<path fill-rule="evenodd" clip-rule="evenodd" fill="#FFFFFF" d="M249.033,60.935c-1.682,0.301-2.502-0.625-3.309-2.314
		c1.857,0.249,3.518,0.054,3.195,2.428C248.92,61.048,249.033,60.935,249.033,60.935z"/>
	<path fill-rule="evenodd" clip-rule="evenodd" fill="#FFFFFF" d="M221.895,91.066c-1.474,0.029-2.437-0.674-3.02-2.191
		c1.613-0.391,2.779,0.153,3.718,1.373C222.36,90.521,222.127,90.793,221.895,91.066z"/>
	<path fill-rule="evenodd" clip-rule="evenodd" fill="#FFFFFF" d="M224.299,38.753c1.595,0.826,2.645,1.37,4.5,2.331
		C226.359,41.328,225.147,41.122,224.299,38.753z"/>
	<path fill-rule="evenodd" clip-rule="evenodd" fill="#FFFFFF" d="M236.763,51.112c-0.344-0.479-0.962-0.952-0.946-1.402
		c0.026-0.78,0.953-0.807,1.394-0.583c0.478,0.242,0.737,0.913,1.093,1.397C237.874,50.688,237.445,50.852,236.763,51.112z"/>
	<path fill-rule="evenodd" clip-rule="evenodd" fill="#FFFFFF" d="M218.782,34.177c0.771-0.108,1.62-0.49,2.073,0.547
		c0.045,0.104-0.084,0.401-0.188,0.434c-1.004,0.321-1.424-0.34-1.772-1.101C218.892,34.062,218.782,34.177,218.782,34.177z"/>
</g>
<line display="none" fill="none" x1="180" y1="75.665" x2="222.667" y2="27.998"/>
<g>
	<g>
		<path fill="#0C3D5F" d="M209.333,90.165c3.225,0,3.225-5,0-5S206.108,90.165,209.333,90.165L209.333,90.165z"/>
	</g>
</g>
<g>
	<g>
		<path fill="#0C3D5F" d="M197.929,74.157c1.253-0.559,2.229-1.54,3.333-2.333c2.125-1.529,1.225-4.336-1.262-4.659
			c-0.664-0.086-1.33-0.247-2-0.333c-1.967-0.255-3.001,2.284-2.158,3.762c2.524,4.43,6.389,8.251,11.16,10.149
			c3,1.192,4.288-3.645,1.33-4.821c-3.502-1.393-6.351-4.653-8.174-7.851c-0.719,1.254-1.438,2.508-2.158,3.762
			c0.664,0.086,1.33,0.247,2,0.333c-0.421-1.553-0.841-3.106-1.262-4.659c-1.1,0.791-2.087,1.778-3.333,2.333
			C192.465,71.15,195.011,75.458,197.929,74.157L197.929,74.157z"/>
	</g>
</g>
<g>
	<g>
		<path fill="#0C3D5F" d="M208.256,79c-0.206,0.828-0.174,1.758,0.319,2.487c0.331,0.488,0.562,0.694,1.042,1.032
			c1.256,0.882-1.229-2.044-0.385-2.956c0.811-0.214,1.621-0.429,2.433-0.643c0.359,0.36,0.719,0.72,1.079,1.08
			c-0.804,1.055-1.607,2.11-2.411,3.165c0.317,0.02,0.344,0.014,0.079-0.019c0.153,0.03,0.304,0.07,0.452,0.119
			c-0.462-0.137,0.314,0.174,0.431,0.244c0.271,0.162,0.522,0.355,0.774,0.543c-0.181-0.141-0.153-0.119,0.085,0.066
			c0.305,0.237,0.609,0.472,0.917,0.706c1.088,0.826,2.794,0.173,3.42-0.897c0.752-1.282,0.187-2.598-0.896-3.42
			c-0.242-0.184-0.277-0.21-0.104-0.079c-0.298-0.232-0.597-0.463-0.896-0.692c-0.313-0.239-0.636-0.46-0.973-0.662
			c-0.999-0.599-2.133-0.872-3.288-0.908c-1.73-0.055-2.702,1.628-2.411,3.165c0.195,1.028,1.142,2.172,2.216,2.375
			c1.423,0.269,2.607-0.203,3.313-1.496c0.466-0.853,0.533-2.007-0.04-2.835c-0.344-0.497-0.543-0.641-1.027-1.008
			c-0.054-0.036-0.107-0.072-0.161-0.107c0.661,0.433,1.054,1.274,0.855,2.07c0.33-1.321-0.41-2.708-1.746-3.075
			C210.042,76.899,208.587,77.678,208.256,79L208.256,79z"/>
	</g>
</g>
<g>
	<g>
		<path fill="#0C3D5F" d="M223.825,35.403c-0.333-0.444-0.667-0.889-1-1.333c-1.057-1.411-3.342-1.808-4.316,0
			c-3.699,6.854,3.319,10.495,9.159,11.672c3.145,0.634,4.429-3.857,1.33-4.821c-3.313-1.031-6.44-2.251-9.403-4.081
			c-0.199,1.523-0.398,3.046-0.597,4.569c6.489-1.429,8.067,5.746,12.407,9.081c3.734,2.87,12.284,4.183,12.428,9.841
			c0.082,3.218,5.082,3.226,5,0c-0.214-8.393-8.355-9.811-14.178-13.601c-3.183-2.072-4.6-6.107-7.439-8.582
			c-2.733-2.381-6.212-2.296-9.548-1.562c-2.194,0.483-2.349,3.487-0.597,4.569c3.324,2.053,6.876,3.427,10.597,4.585
			c0.443-1.607,0.887-3.214,1.33-4.821c-1.757-0.354-7.78-1.348-6.173-4.328c-1.438,0-2.878,0-4.316,0
			c0.333,0.445,0.666,0.889,1,1.333C221.419,40.472,225.763,37.984,223.825,35.403L223.825,35.403z"/>
	</g>
</g>
<g>
	<g>
		<path fill="#0C3D5F" d="M219.491,92.926c0.255-0.384,0.5-0.774,0.768-1.149c-0.377,0.527-0.022,0.055,0.069-0.043
			c0.088-0.09,0.179-0.176,0.273-0.258c-0.247,0.18-0.249,0.185-0.007,0.014c-1.254-0.72-2.508-1.439-3.762-2.159
			c0.034-0.612-0.195,0.229,0.09-0.345c-0.127,0.255-0.282,0.497-0.414,0.75c-1.177,2.243,1.172,4.607,3.42,3.42
			c0.723-0.382,1.31-1.036,2.039-1.386c-0.842,0-1.683,0-2.523,0c0.001,0.001,0.003,0.002,0.004,0.003
			c-0.299-1.14-0.598-2.28-0.896-3.42c0.115-0.152,0.231-0.305,0.348-0.457c-0.938,0.987-0.982,2.553,0,3.535
			c0.944,0.944,2.598,0.988,3.535,0c0.162-0.17,0.296-0.365,0.435-0.555c0.863-1.188,0.108-2.675-0.897-3.42
			c-0.001-0.001-0.003-0.002-0.004-0.003c-0.738-0.547-1.771-0.362-2.523,0c-0.729,0.351-1.316,1.004-2.039,1.386
			c1.14,1.14,2.28,2.28,3.42,3.42c0.511-0.974,0.944-1.802,1.008-2.929c0.103-1.815-2.231-3.223-3.762-2.159
			c-1.262,0.877-2.061,1.965-2.896,3.23c-0.753,1.138-0.23,2.76,0.896,3.42C217.296,94.541,218.742,94.061,219.491,92.926
			L219.491,92.926z"/>
	</g>
</g>
<line fill="none" stroke="#0C3D5F" stroke-width="3" stroke-miterlimit="10" x1="227.333" y1="27.998" x2="183.667" y2="75.665"/>
<line fill="none" stroke="#0C3D5F" stroke-width="3" stroke-miterlimit="10" x1="225.727" y1="26.08" x2="139.607" y2="116.582"/>
<line display="none" fill="none" stroke="#0C3D5F" stroke-width="3" stroke-miterlimit="10" x1="197.714" y1="60.331" x2="197.714" y2="60.331"/>
<line fill="none" stroke="#0C3D5F" stroke-width="3" stroke-miterlimit="10" x1="256.277" y1="55.949" x2="172.926" y2="146.093"/>
<g>
	<g>
		<path fill="#0C3D5F" d="M141.107,117.268c0.25,0.25,0.5,0.5,0.75,0.75c0.963,0.963,2.572,0.963,3.535,0
			c0.963-0.963,0.963-2.572,0-3.535c-0.25-0.25-0.5-0.5-0.75-0.75c-0.963-0.963-2.572-0.963-3.535,0
			C140.144,114.695,140.144,116.305,141.107,117.268L141.107,117.268z"/>
	</g>
</g>
<g>
	<g>
		<path fill="#0C3D5F" d="M141.863,113.466c-0.207,0.095-0.095,0.048,0.335-0.141c-0.11,0.043-0.221,0.083-0.332,0.123
			c-0.135,0.048-0.271,0.095-0.406,0.141c-1.291,0.432-2.123,1.707-1.746,3.075c0.346,1.259,1.783,2.179,3.075,1.746
			c0.542-0.182,1.078-0.385,1.597-0.627c1.235-0.576,1.537-2.328,0.897-3.42C144.548,113.107,143.099,112.891,141.863,113.466
			L141.863,113.466z"/>
	</g>
</g>
<g>
	<g>
		<path fill="#0C3D5F" d="M245.607,58.857c-0.659,0.628-1.067,1.49-1.06,2.409c0.01,1.098,0.618,1.976,1.496,2.58
			c1.048,0.721,2.478,0.412,3.37-0.374c0.879-0.774,0.918-1.95,0.747-3.012c-0.218-1.347-1.871-2.078-3.076-1.746
			c-1.419,0.39-1.963,1.731-1.746,3.075c-0.089-0.55-0.025-0.919,0.22-1.424c0.737-1.519,2.479-1.339,3.421-0.519
			c0.423,0.368,0.563,0.893,0.567,1.346c0.007,0.336-0.071,0.652-0.233,0.945c-0.301,0.356-0.357,0.441-0.171,0.254
			c0.986-0.94,0.946-2.589,0-3.535C248.162,57.877,246.593,57.917,245.607,58.857L245.607,58.857z"/>
	</g>
</g>
<g>
	<g>
		<path fill="#0C3D5F" d="M193.375,62.625c0.883,0.048,0.187,0.014-0.091-0.073c-0.209-0.065-0.413-0.143-0.619-0.213
			c0.582,1.025,1.164,2.05,1.746,3.075c0.02-0.098,0.047-0.194,0.082-0.288c-0.21,0.637-0.076,0.217,0.029,0.044
			c0.286-0.471-0.366,0.427-0.028,0.019c0.086-0.104,0.18-0.201,0.273-0.297c0.95-0.975,0.973-2.563,0-3.535
			c-0.953-0.954-2.585-0.976-3.535,0c-0.742,0.761-1.387,1.682-1.644,2.728c-0.339,1.385,0.43,2.625,1.746,3.075
			c0.682,0.233,1.308,0.424,2.04,0.464c1.362,0.075,2.5-1.194,2.5-2.5C195.875,63.706,194.735,62.699,193.375,62.625L193.375,62.625
			z"/>
	</g>
</g>
<g>
	<g>
		<path fill="#0C3D5F" d="M248.762,60.409c1.066-0.578,1.695-0.994,2.917-1.013c1.458-0.023,2.779-0.17,4.083-0.862
			c1.79-0.95,1.437-3.291,0-4.317c0.174,0.174,0.348,0.348,0.521,0.522c-1.14,1.14-2.28,2.28-3.42,3.42
			c0.078,0.047,0.156,0.094,0.234,0.141c-0.299-0.299-0.598-0.598-0.896-0.897c0.047,0.078,0.094,0.156,0.141,0.234
			c1.693,2.822,5.61,0.359,4.316-2.523c-0.238-0.532-0.565-0.9-1.016-1.256c-1.066-0.846-2.489-1.046-3.535,0
			c-0.88,0.88-1.07,2.688,0,3.535c0.2,0.039,0.278,0.12,0.234,0.244c1.438-0.841,2.878-1.682,4.316-2.523
			c-0.334-0.558-0.714-0.938-1.271-1.272c-2.112-1.268-4.78,1.283-3.42,3.42c0.356,0.561,0.734,0.889,1.271,1.272
			c0-1.439,0-2.878,0-4.317c-0.773,0.41-1.974,0.165-2.827,0.24c-1.59,0.141-2.803,0.892-4.173,1.635
			C243.403,57.629,245.928,61.946,248.762,60.409L248.762,60.409z"/>
	</g>
</g>
</svg>
